<svg width="100" height="76" viewBox="0 0 100 76" fill="none" xmlns="http://www.w3.org/2000/svg">
<path d="M7.51183 68.0923L6.14998 71.2553H7.64362L7.51183 68.0923ZM4.87599 74.0669H3.86559L7.29218 66.7305H8.21472L8.96154 74.0669H7.95114L7.77541 72.1339H5.71067L4.87599 74.0669Z" fill="#636364"/>
<path d="M13.1351 71.3433C13.3987 70.1132 13.1351 69.3664 12.3882 69.3664C12.0368 69.3664 11.7732 69.5421 11.5096 69.8496C11.246 70.1571 11.0703 70.5964 10.9385 71.3433C10.8067 72.0901 10.8067 72.5294 10.9385 72.8369C11.0703 73.1444 11.246 73.3202 11.6414 73.3202C12.3882 73.3202 12.8715 72.5733 13.1351 71.3433ZM10.5871 68.6196H11.3778C11.3339 68.9271 11.246 69.2346 11.2021 69.4982C11.5536 68.7953 12.0807 68.4878 12.6958 68.4878C13.7501 68.4878 14.3212 69.5421 13.9258 71.3433C13.6183 73.1005 12.7397 74.1988 11.6414 74.1988C11.0703 74.1988 10.631 73.8473 10.5871 73.2762C10.5871 73.4519 10.5432 73.7155 10.4553 74.067L10.1039 75.9999H9.22524L10.5871 68.6196Z" fill="#636364"/>
<path d="M17.9667 71.3433C18.2303 70.1132 17.9667 69.3664 17.2199 69.3664C16.8685 69.3664 16.6049 69.5421 16.3413 69.8496C16.0777 70.1571 15.902 70.5964 15.7702 71.3433C15.6384 72.0901 15.6384 72.5294 15.7702 72.8369C15.902 73.1444 16.0777 73.3202 16.4731 73.3202C17.2638 73.3202 17.791 72.5733 17.9667 71.3433ZM15.4627 68.6196H16.2534C16.2095 68.9271 16.1216 69.2346 16.0777 69.4982C16.4292 68.7953 16.9563 68.4878 17.5714 68.4878C18.6257 68.4878 19.1968 69.5421 18.8014 71.3433C18.4939 73.1005 17.6153 74.1988 16.517 74.1988C15.9459 74.1988 15.5066 73.8473 15.4627 73.2762C15.4627 73.4519 15.4188 73.7155 15.3309 74.067L14.9795 75.9999H14.1008L15.4627 68.6196Z" fill="#636364"/>
<path d="M23.0192 74.067H22.2284C22.2724 73.8034 22.3602 73.4959 22.4042 73.2763C22.0527 73.9791 21.4816 74.1988 20.8666 74.1988C19.944 74.1988 19.4169 73.7156 19.6805 72.4416L20.3833 68.6635H21.262L20.6469 72.2219C20.603 72.7052 20.5151 73.4081 21.3498 73.4081C21.9648 73.4081 22.4481 72.9687 22.6677 72.0462L23.2828 68.7075H24.1614L23.0192 74.067Z" fill="#636364"/>
<path d="M25.6548 66.7305H26.5334L26.3577 67.7409H25.4791L25.6548 66.7305ZM25.3473 68.6195H26.2259L25.2155 74.0669H24.3369L25.3473 68.6195Z" fill="#636364"/>
<path d="M30.1368 71.3432C29.8733 72.5732 30.1368 73.32 30.8837 73.32C31.2351 73.32 31.4987 73.1443 31.7623 72.8368C32.0259 72.5293 32.2016 72.09 32.3334 71.3432C32.4652 70.5963 32.5091 70.157 32.3334 69.8495C32.2016 69.542 32.0259 69.3663 31.5865 69.3663C30.8837 69.3663 30.4004 70.0692 30.1368 71.3432ZM32.6848 74.0669H31.8941C31.938 73.7154 32.0259 73.4518 32.0698 73.1883C31.7183 73.8033 31.1912 74.1987 30.5761 74.1987C29.5218 74.1987 28.9507 73.1443 29.3461 71.3432C29.6536 69.5859 30.5322 68.4877 31.6305 68.4877C32.2016 68.4877 32.6409 68.7513 32.7287 69.4981C32.7727 69.1906 32.8605 68.927 32.9045 68.6195H33.6952L32.6848 74.0669Z" fill="#636364"/>
<path d="M37.6052 74.0669H36.8145C36.8584 73.8033 36.9463 73.4958 36.9902 73.2761C36.6388 73.979 36.0677 74.1987 35.4526 74.1987C34.5301 74.1987 34.0029 73.7154 34.2665 72.4415L34.9694 68.6634H35.848L35.233 72.2218C35.189 72.705 35.1012 73.4079 35.9359 73.4079C36.5509 73.4079 37.0341 72.9686 37.2538 72.0461L37.8688 68.7074H38.7474L37.6052 74.0669Z" fill="#636364"/>
<path d="M40.2838 71.2554L39.3173 68.6196H40.3277L40.8988 70.5965L42.2168 68.6196H43.1832L41.3382 71.2554L42.3046 74.067H41.2503L40.6353 71.9583L39.2734 74.067H38.2191L40.2838 71.2554Z" fill="#636364"/>
<path d="M48.9825 70.904C49.1143 70.0254 48.9386 69.2346 48.1918 69.2346C47.4889 69.2346 46.9617 69.9375 46.7421 70.904H48.9825ZM46.6103 71.6508C46.4346 72.5733 46.6542 73.408 47.4889 73.408C48.06 73.408 48.4993 73.0566 48.719 72.4855H49.5976C49.4218 73.1005 49.0265 73.5398 48.675 73.8473C48.3236 74.1109 47.7964 74.2866 47.445 74.2866C45.9513 74.2866 45.5999 72.9248 45.9074 71.4312C46.2149 69.7618 47.2253 68.5757 48.4993 68.5757C49.2022 68.5757 49.5976 68.8832 49.8612 69.3664C50.1687 70.0693 50.0369 70.904 49.9051 71.6508H46.6103Z" fill="#636364"/>
<path d="M51.2669 68.6196H52.0137C51.9698 68.8832 51.8819 69.1028 51.838 69.4103C52.1895 68.7953 52.7605 68.4878 53.4634 68.4878C54.386 68.4878 54.9132 68.971 54.6496 70.245L53.9467 74.023H53.0681L53.6831 70.4647C53.727 69.9814 53.8149 69.2785 52.9802 69.2785C52.3652 69.2785 51.8819 69.7178 51.6623 70.6404L51.0473 73.9791H50.1686L51.2669 68.6196Z" fill="#636364"/>
<path d="M56.2308 69.4102H55.5718L55.6597 68.6195H56.3626L56.6701 67.1258H57.5487L57.2412 68.6195H57.988L57.8123 69.4102H57.1094L56.2308 74.0669H55.3522L56.2308 69.4102Z" fill="#636364"/>
<path d="M58.7351 68.6196H59.5259C59.482 69.0589 59.3941 69.3225 59.3502 69.63C59.7895 68.7074 60.4045 68.5317 60.9756 68.5317L60.7999 69.5861C60.6681 69.5421 60.6242 69.4543 60.4924 69.4543C60.0531 69.4543 59.3941 69.9375 59.1745 71.0797L58.6034 74.067H57.7247L58.7351 68.6196Z" fill="#636364"/>
<path d="M64.1383 70.9039C64.2701 70.0253 64.0944 69.2345 63.3476 69.2345C62.6447 69.2345 62.1175 69.9374 61.8979 70.9039H64.1383ZM61.7661 71.6507C61.5903 72.5732 61.81 73.4079 62.6447 73.4079C63.2158 73.4079 63.6551 73.0565 63.8747 72.4854H64.7533C64.5776 73.1004 64.1822 73.5397 63.8308 73.8472C63.4794 74.1108 62.9522 74.2865 62.6007 74.2865C61.1071 74.2865 60.7557 72.9247 61.0632 71.431C61.3707 69.7617 62.3811 68.5756 63.6551 68.5756C64.358 68.5756 64.7533 68.8831 65.0169 69.3663C65.3244 70.0692 65.1927 70.9039 65.0609 71.6507H61.7661Z" fill="#636364"/>
<path d="M68.9708 71.3432C69.2344 70.1131 68.9708 69.3663 68.224 69.3663C67.8725 69.3663 67.609 69.542 67.3454 69.8495C67.0818 70.157 66.9061 70.5963 66.7743 71.3432C66.6425 72.09 66.6425 72.5293 66.7743 72.8368C66.9061 73.1443 67.0818 73.32 67.4772 73.32C68.224 73.32 68.7072 72.5732 68.9708 71.3432ZM66.4228 68.6195H67.2136C67.1696 68.927 67.0818 69.2345 67.0379 69.4981C67.3893 68.7952 67.9165 68.4877 68.5315 68.4877C69.5858 68.4877 70.1569 69.542 69.7616 71.3432C69.454 73.1004 68.5754 74.1987 67.4772 74.1987C66.9061 74.1987 66.4668 73.8472 66.4228 73.2761C66.3789 73.4518 66.3789 73.7154 66.291 74.0669L65.9396 75.9998H65.061L66.4228 68.6195Z" fill="#636364"/>
<path d="M71.2554 68.6196H72.0461C72.0022 69.0589 71.9143 69.3225 71.8704 69.63C72.3097 68.7074 72.9248 68.5317 73.4958 68.5317L73.3201 69.5861C73.1883 69.5421 73.1444 69.4543 73.0126 69.4543C72.5733 69.4543 71.9143 69.9375 71.6947 71.0797L71.1675 74.023H70.2889L71.2554 68.6196Z" fill="#636364"/>
<path d="M76.6586 70.9039C76.7903 70.0253 76.6146 69.2345 75.8678 69.2345C75.1649 69.2345 74.6377 69.9374 74.4181 70.9039H76.6586ZM74.3302 71.6507C74.1545 72.5732 74.3742 73.4079 75.2088 73.4079C75.7799 73.4079 76.2193 73.0565 76.4389 72.4854H77.3175C77.1418 73.1004 76.7464 73.5397 76.395 73.8472C76.0435 74.1108 75.5164 74.2865 75.1649 74.2865C73.6713 74.2865 73.3198 72.9247 73.6273 71.431C73.9349 69.7617 74.9453 68.5756 76.2193 68.5756C76.9221 68.5756 77.3175 68.8831 77.5811 69.3663C77.8886 70.0692 77.7568 70.9039 77.625 71.6507H74.3302Z" fill="#636364"/>
<path d="M78.9869 68.6195H79.7337C79.6897 68.8831 79.6019 69.1027 79.558 69.4102C79.9094 68.7952 80.4805 68.4877 81.1834 68.4877C82.1059 68.4877 82.6331 68.9709 82.3695 70.2449L81.6666 74.0229H80.788L81.403 70.4646C81.447 69.9813 81.5348 69.2784 80.7001 69.2784C80.0851 69.2784 79.6019 69.7177 79.3822 70.6403L78.7672 73.979H77.8886L78.9869 68.6195Z" fill="#636364"/>
<path d="M86.3672 70.9039C86.499 70.0253 86.3233 69.2345 85.5765 69.2345C84.8736 69.2345 84.3464 69.9374 84.1268 70.9039H86.3672ZM83.995 71.6507C83.8193 72.5732 84.0389 73.4079 84.8736 73.4079C85.4447 73.4079 85.884 73.0565 86.1037 72.4854H86.9823C86.8065 73.1004 86.4112 73.5397 86.0597 73.8472C85.7083 74.1108 85.1811 74.2865 84.8297 74.2865C83.336 74.2865 82.9846 72.9247 83.2921 71.431C83.5996 69.7617 84.61 68.5756 85.884 68.5756C86.5869 68.5756 86.9823 68.8831 87.2458 69.3663C87.5534 70.0692 87.4216 70.9039 87.2898 71.6507H83.995Z" fill="#636364"/>
<path d="M91.3318 74.0669H90.5411C90.585 73.8033 90.6729 73.4958 90.7168 73.2762C90.3653 73.979 89.7943 74.1987 89.1792 74.1987C88.2567 74.1987 87.7295 73.7155 87.9931 72.4415L88.696 68.6634H89.5746L88.9596 72.2218C88.9156 72.705 88.8278 73.4079 89.6625 73.4079C90.2775 73.4079 90.7607 72.9686 90.9804 72.0461L91.5954 68.7074H92.474L91.3318 74.0669Z" fill="#636364"/>
<path d="M93.5723 68.6196H94.363C94.3191 69.0589 94.2312 69.3225 94.1873 69.63C94.6266 68.7074 95.2416 68.5317 95.8127 68.5317L95.637 69.5861C95.5052 69.5421 95.4613 69.4543 95.3295 69.4543C94.8902 69.4543 94.2312 69.9375 94.0116 71.0797L93.4405 74.067H92.5619L93.5723 68.6196Z" fill="#636364"/>
<path d="M98.3604 70.0692C98.4922 69.4542 98.2286 69.2785 97.7454 69.2785C97.3061 69.2785 96.9986 69.586 96.9546 69.9814C96.8228 70.5525 97.3939 70.7282 97.965 70.9039C98.5361 71.0796 99.1511 71.475 98.9754 72.5733C98.7997 73.5837 97.9211 74.2426 96.9107 74.2426C95.9003 74.2426 95.2853 73.6715 95.461 72.4854H96.3396C96.2078 73.1004 96.6032 73.4958 97.0864 73.4958C97.6575 73.4958 97.965 73.1444 98.009 72.705C98.1407 72.09 97.6575 71.9143 96.9985 71.6946C96.3835 71.4311 95.8124 71.1235 95.9881 70.1571C96.1639 69.2785 96.9107 68.6634 97.9211 68.6634C98.9315 68.6634 99.4147 69.2345 99.239 70.2889H98.3604V70.0692Z" fill="#636364"/>
<path d="M98.7558 34.6174V31.4983H85.313V39.4058H83.9512V42.5249H85.313V50.3446H98.7558V47.2255H88.3003V42.5249H97.7015V39.4058H88.3003V34.6174H98.7558Z" fill="#636364"/>
<path d="M82.3263 39.5815V39.3179H75.8685V42.437H79.2951C79.0315 43.7549 78.3725 44.8532 77.3621 45.7757C76.176 46.874 74.7702 47.4451 73.1448 47.4451C71.4754 47.4451 69.8939 46.83 68.6639 45.5121C67.4338 44.1942 66.8188 42.6566 66.8188 40.8994C66.8188 39.9769 66.9945 39.1422 67.302 38.3954C67.6095 37.6485 68.0928 36.9017 68.7517 36.2867C69.9818 34.9688 71.4754 34.3537 73.1448 34.3537C73.9355 34.3537 74.7702 34.4855 75.517 34.793C76.2639 35.1006 76.8789 35.5399 77.45 36.111L77.6257 36.2867L77.8014 36.111L79.6026 34.2659L79.7783 34.0902L79.6026 33.9144C78.724 33.0358 77.8014 32.3769 76.7471 31.9376C75.6928 31.4983 74.5066 31.2347 73.1887 31.2347C70.6407 31.2347 68.4003 32.2451 66.5991 34.0902C64.798 36.0231 63.8754 38.3075 63.8754 40.9433C63.8754 41.6462 63.9194 42.2613 64.0511 42.8763C64.1829 43.4913 64.3587 44.0624 64.5344 44.6774C64.9737 45.7757 65.6326 46.874 66.5991 47.7965C68.4442 49.6416 70.6407 50.6081 73.1887 50.6081C75.6928 50.6081 77.8454 49.6855 79.6465 47.8844C81.4916 46.0393 82.4581 43.667 82.4581 40.9433L82.4142 39.889C82.3263 39.8451 82.3263 39.5815 82.3263 39.5815Z" fill="#636364"/>
<path d="M58.2962 46.5225C57.8569 46.9618 57.2858 47.2254 56.6707 47.2254H49.9494V42.437H56.6707C57.2858 42.437 57.8569 42.7006 58.3401 43.1399C58.7794 43.5792 59.043 44.1503 59.043 44.8092C59.043 45.4682 58.7794 46.0393 58.2962 46.5225ZM49.9494 34.6173H56.6707C57.2858 34.6173 57.8569 34.8809 58.2962 35.3202C58.7355 35.8034 58.9991 36.3306 58.9991 36.9896C58.9991 37.6046 58.7355 38.1757 58.2962 38.6589C57.8569 39.1422 57.2858 39.3618 56.6707 39.3618H49.9494V34.6173ZM39.2742 42.8324C39.6257 36.111 39.6257 34.4416 39.6257 34.4416C39.6257 34.4416 39.0546 31.8497 41.8661 28.4231C42.2176 27.9399 42.569 27.5006 42.8765 27.0613C44.1944 28.4231 45.3806 30.0485 46.347 31.7618L46.5228 31.7179C45.2927 36.111 42.7447 39.9769 39.2742 42.8324ZM36.3748 28.3792C36.1112 28.0277 35.9355 27.6324 35.6719 27.2809C36.5505 26.7977 36.9898 25.7433 36.6823 24.7329C36.5066 24.03 35.9794 23.5468 35.3644 23.2832C35.4083 22.8 35.4962 22.3607 35.4962 21.8335C37.4731 22.7121 39.3621 23.8104 41.0314 25.1722C39.7575 26.4902 38.0881 27.4566 36.3748 28.3792ZM31.9378 46.9179C33.4314 44.0624 34.354 41.778 35.2765 39.5376C35.628 38.5271 36.2869 41.4705 36.4627 44.941C35.0569 45.7318 33.5193 46.3468 31.9378 46.9179ZM33.4314 29.8289C33.7829 29.0821 34.0465 28.3352 34.3101 27.5884C34.5736 27.5884 34.7494 27.5884 35.0129 27.5445C35.2765 27.8959 35.4962 28.2913 35.7598 28.7306C34.8812 29.0821 34.1343 29.4774 33.4314 29.8289ZM32.8603 23.7225C31.5424 22.3607 30.1366 21.1745 28.5551 20.252C30.7517 20.4277 32.7725 20.867 34.7494 21.7017C34.7494 22.185 34.7054 22.7121 34.6176 23.1954C34.354 23.1954 34.0465 23.1954 33.739 23.2393C33.4314 23.3711 33.1239 23.5468 32.8603 23.7225ZM61.9424 36.9896C61.9424 35.4959 61.4592 34.178 60.4049 33.1237C59.3505 32.0693 58.1205 31.4982 56.6707 31.4982H47.8407C48.3239 29.6532 48.5875 27.7202 48.5875 25.6994C48.5875 23.2832 48.2361 20.911 47.5332 18.7584C47.2257 18.8902 46.9181 18.9341 46.5228 18.9341C46.4788 18.9341 46.391 18.9341 46.347 18.9341C47.0499 21.1306 47.4014 23.3271 47.4014 25.7873C47.4014 27.3248 47.2257 28.8185 46.9181 30.3121C45.9956 28.7745 44.8534 27.3248 43.6234 26.0069C44.2384 24.9526 44.5459 24.074 44.7216 23.5029C44.8534 23.1514 44.6777 22.7561 44.3702 22.6243C45.117 21.4381 45.732 20.2081 46.2153 18.8902C45.9517 18.8902 45.732 18.8462 45.4684 18.7144C44.8973 20.2081 44.1505 21.5699 43.2719 22.8878C43.0083 23.0636 42.7008 23.3711 42.3933 23.8104C42.2176 23.9861 42.0858 24.2497 41.9101 24.4254C39.9771 22.8 37.8684 21.5699 35.584 20.6474V20.6035C35.584 14.7167 33.3436 9.0497 29.302 4.74449C29.1262 4.92022 28.9505 5.05201 28.7309 5.1838C32.5968 9.26935 34.7494 14.6728 34.8372 20.3399C32.7725 19.593 30.6638 19.1537 28.5112 19.0219C28.5112 19.1977 28.5551 19.3734 28.5551 19.593C28.5551 20.0763 28.5112 20.5156 28.2916 20.911C29.7852 21.8335 31.191 23.0196 32.465 24.3376C32.1575 24.8208 32.1135 25.4358 32.2892 26.0069C32.465 26.7098 33.0361 27.193 33.6511 27.4566C33.2997 28.467 32.8603 29.5214 32.3332 30.4439C30.7077 31.3665 29.7413 32.2011 29.0384 32.948C27.8523 33.2555 26.6222 33.3873 25.3043 33.4312C20.3401 33.6948 15.2881 32.0693 11.1586 29.0821C11.0268 29.3456 10.895 29.5214 10.7193 29.6971C15.0245 32.8162 20.2083 34.4855 25.3921 34.178C26.3147 34.1341 27.1933 34.0023 28.1158 33.8705C26.1829 35.9352 25.4361 37.4289 25.6118 38.2196C22.1413 40.8115 17.9679 42.5248 13.7505 43.0081C13.7945 43.1838 13.8823 43.4474 13.8823 43.711V43.7549C18.2754 43.2717 22.5806 41.5144 26.1829 38.7907C26.3147 38.8347 26.4465 38.8347 26.5343 38.8347C27.8962 38.8347 30.7077 33.563 32.9921 33.8705C35.1887 34.178 30.3124 44.0624 28.5991 47.7965C27.5008 47.9722 26.3147 48.0601 25.1286 48.0601C20.9112 48.0601 16.9135 46.874 13.5748 44.8092C13.3991 45.1607 13.1355 45.5121 12.784 45.7318C16.3864 47.9722 20.6037 49.2902 25.1286 49.2902C26.139 49.2902 27.1054 49.2462 28.1158 49.1144C26.9297 52.4532 29.302 51.7942 31.147 48.5433C32.9921 48.0601 34.7933 47.3133 36.5066 46.3468C36.5066 47.0936 36.5066 47.8404 36.4627 48.5433C36.2869 51.3988 38.8788 50.7838 39.1424 47.3133C39.1864 46.3029 39.2742 45.4682 39.3181 44.5896C42.7887 41.9977 45.4684 38.4393 47.0939 34.3537V50.3884H56.8025C58.2523 50.3884 59.5262 49.8173 60.5366 48.763C61.547 47.7086 62.0742 46.3907 62.0742 44.8971C62.0742 44.1063 61.8985 43.3595 61.5031 42.6127C61.1956 41.9977 60.8002 41.4266 60.317 40.9873C60.8002 40.504 61.1956 39.9329 61.5031 39.3179C61.7667 38.5272 61.9424 37.7364 61.9424 36.9896Z" fill="#636364"/>
<path d="M8.0392 26.3584C7.02879 25.348 6.19411 24.2936 5.35943 23.1075C5.18371 23.2832 5.00799 23.459 4.78833 23.6786C5.57908 24.8647 6.4577 25.9191 7.4681 26.9295C7.59989 26.6659 7.77561 26.4902 8.0392 26.3584Z" fill="#636364"/>
<path d="M8.52251 30.2242C8.17107 30.0924 7.77569 29.8728 7.5121 29.5213C6.58956 31.015 5.75488 32.5525 5.13985 34.2219C5.57916 34.2219 5.9306 34.3537 6.32598 34.5733C6.89708 32.9918 7.6439 31.5861 8.52251 30.2242Z" fill="#636364"/>
<path d="M5.53541 19.7688C5.66721 19.9445 5.799 20.2081 5.84293 20.4717C9.00593 18.8463 12.5643 17.9237 16.2106 17.748C17.9678 17.6162 19.6811 17.7919 21.4383 18.1873C21.5701 17.9237 21.7019 17.748 21.7897 17.5723C19.9447 17.133 18.0556 16.9573 16.1227 17.0891C12.4325 17.0891 8.83021 18.0995 5.53541 19.7688Z" fill="#636364"/>
<path d="M5.35925 38.2636C6.41358 39.933 7.64364 41.4266 9.09335 42.7885C9.22514 42.437 9.44479 42.0417 9.79624 41.7781C8.56618 40.592 7.42398 39.2301 6.50144 37.7804C6.15 38.0879 5.79855 38.2197 5.35925 38.2636Z" fill="#636364"/>
<path d="M44.1059 14.1896C44.3695 13.8821 44.677 13.5746 45.0285 13.3988C41.7337 8.12717 36.3741 4.26127 30.0481 2.89942C30.0481 3.33873 29.9163 3.69018 29.7846 4.08555C35.847 5.27168 40.9429 9.09365 44.1059 14.1896Z" fill="#636364"/>
<path d="M4.12937 18.5388C7.02879 9.9284 15.0242 3.73418 24.5571 3.4706C24.5132 3.20701 24.4253 3.03129 24.4253 2.76771C24.4253 2.59199 24.4253 2.41626 24.4693 2.28447C14.4091 2.54805 5.8866 9.18158 2.85538 18.3191C2.89931 18.3191 2.89931 18.3191 2.98717 18.3191C3.42648 18.3191 3.82186 18.407 4.12937 18.5388Z" fill="#636364"/>
<path d="M21.3938 20.8671C21.262 20.5157 21.1302 20.1203 21.1302 19.681C16.9129 20.7354 13.1349 23.0197 10.1476 26.1388C10.499 26.3145 10.8505 26.5781 11.0701 26.9296C13.8817 24.0301 17.3961 21.9215 21.3938 20.8671Z" fill="#636364"/>
<path d="M2.98766 24.2498C2.54835 24.2498 2.1969 24.118 1.80153 23.9423C1.7576 24.5134 1.7576 25.1284 1.7576 25.7434C1.7576 29.0382 2.46049 32.1573 3.69055 35.0128C3.95413 34.7053 4.30557 34.4417 4.74488 34.3099C3.64661 31.6301 2.98766 28.7746 2.98766 25.7434C2.94372 25.2163 2.94372 24.733 2.98766 24.2498Z" fill="#636364"/>
<path d="M11.3786 28.1596C11.3786 29.3458 10.3682 30.3562 9.18207 30.3562C7.99594 30.3562 6.98553 29.3458 6.98553 28.1596C6.98553 26.9735 7.99594 25.9631 9.18207 25.9631C10.4561 25.9631 11.3786 26.9296 11.3786 28.1596Z" fill="#636364"/>
<path d="M7.20426 36.2867C7.20426 37.385 6.28171 38.3515 5.13952 38.3515C3.99732 38.3515 3.07478 37.4289 3.07478 36.2867C3.07478 35.1885 3.99766 34.2219 5.13985 34.2219C6.32598 34.2219 7.20426 35.1006 7.20426 36.2867Z" fill="#636364"/>
<path d="M28.5109 19.5931C28.5109 21.6578 26.8415 23.2393 24.8646 23.2393C22.7999 23.2393 21.2184 21.57 21.2184 19.5931C21.2184 17.5283 22.8878 15.9468 24.8646 15.9468C26.8415 15.9468 28.5109 17.5283 28.5109 19.5931Z" fill="#636364"/>
<path d="M30.0925 2.81156C30.0925 4.34913 28.8624 5.62312 27.2809 5.62312C25.6994 5.62312 24.4693 4.39306 24.4693 2.81156C24.4693 1.27399 25.6994 0 27.2809 0C28.8624 0 30.0925 1.23006 30.0925 2.81156Z" fill="#636364"/>
<path d="M13.8822 43.6231C13.8822 44.9849 12.7839 46.0393 11.466 46.0393C10.1041 46.0393 9.04979 44.941 9.04979 43.6231C9.04979 42.2612 10.1481 41.2069 11.466 41.2069C12.74 41.2069 13.8822 42.3052 13.8822 43.6231Z" fill="#636364"/>
<path d="M5.97456 21.2624C5.97456 22.8879 4.65702 24.2498 2.98766 24.2498C1.36222 24.2498 0 22.9318 0 21.2624C0 19.637 1.31792 18.2751 2.98728 18.2751C4.65665 18.3191 5.97456 19.637 5.97456 21.2624Z" fill="#636364"/>
<path d="M49.51 15.9028C49.51 17.5721 48.1481 18.8901 46.5227 18.8901C44.8533 18.8901 43.5354 17.5282 43.5354 15.9028C43.5354 14.2334 44.8973 12.9155 46.5227 12.9155C48.1481 12.9155 49.51 14.2773 49.51 15.9028Z" fill="#636364"/>
<path d="M98.7563 62.6891H0.0880837V54.6937H98.7563V62.6891Z" fill="#636364"/>
<path d="M63.9631 57.2856H62.9087V56.4509H65.9399V57.2856H64.9295V61.2393H63.9631V57.2856Z" fill="#636364"/>
<path d="M66.0275 58.867C66.0275 57.3295 67.2137 56.363 68.5316 56.363C69.9813 56.363 71.0356 57.5052 71.0356 58.867C71.0356 60.2289 69.9813 61.3711 68.5316 61.3711C67.0379 61.2832 66.0275 60.141 66.0275 58.867ZM66.994 58.8231C66.994 59.7017 67.609 60.4485 68.5755 60.4485C69.542 60.4485 70.1131 59.6139 70.1131 58.8231C70.1131 58.0324 69.542 57.1977 68.5755 57.1977C67.5651 57.1537 66.994 57.9445 66.994 58.8231Z" fill="#636364"/>
<path d="M72.7057 56.407V59.3504C72.7057 59.57 72.7057 59.8336 72.8375 60.0972C72.9693 60.3169 73.1889 60.4487 73.4965 60.4487C73.804 60.4487 74.0236 60.3169 74.1554 60.0972C74.2872 59.8776 74.2872 59.614 74.2872 59.3504V56.407H75.2537V59.3504C75.2537 60.0533 75.1219 60.4926 74.7704 60.844C74.4629 61.1076 74.0676 61.2833 73.5404 61.2833C73.1889 61.2833 72.6618 61.1955 72.3103 60.844C71.871 60.4047 71.7832 60.0094 71.7832 59.3504V56.407H72.7057Z" fill="#636364"/>
<path d="M76.0878 56.407H77.5376C78.2844 56.407 78.7237 56.5388 78.9873 56.7146C79.3826 56.9781 79.6023 57.5053 79.6023 58.0325C79.6023 58.3839 79.5144 58.6914 79.3387 58.9111C79.1191 59.2186 78.8555 59.3504 78.548 59.4383L79.6023 61.1955H78.5919L77.3179 58.955H77.4936C77.8011 58.955 78.1526 58.955 78.3722 58.7793C78.548 58.6036 78.6797 58.3839 78.6797 58.0764C78.6797 57.7689 78.548 57.5053 78.3283 57.3735C78.1526 57.2417 77.9329 57.2417 77.6693 57.2417H77.0982V61.1955H76.1318V56.407H76.0878Z" fill="#636364"/>
<path d="M80.8327 61.1955H79.7784L81.7113 56.407H82.546L84.435 61.1955H83.3807L83.0293 60.2729H81.1402L80.8327 61.1955ZM82.1067 57.5492L81.4477 59.4822H82.8096L82.1067 57.5492Z" fill="#636364"/>
<path d="M84.9623 56.407H85.9288V61.1955H84.9623V56.407Z" fill="#636364"/>
<path d="M89.8824 59.7458V56.407H90.8049V61.1955H89.9703L87.7737 57.9007V61.1955H86.8512V56.407H87.7298L89.8824 59.7458Z" fill="#636364"/>
<path d="M91.7276 56.407H94.4074V57.2417H92.6941V58.34H94.3634V59.1747H92.6941V60.3169H94.4074V61.1516H91.7276V56.407Z" fill="#636364"/>
<path d="M64.125 57.332V56.7344H67.7344V57.332H66.3398V61H65.5195V57.332H64.125ZM68.1445 58.9873V58.7471C68.1445 58.0869 68.3311 57.5723 68.7041 57.2031C69.0771 56.832 69.5596 56.6465 70.1514 56.6465C70.7451 56.6465 71.2295 56.832 71.6045 57.2031C71.9795 57.5723 72.167 58.0869 72.167 58.7471V58.9873C72.167 59.6475 71.9795 60.1631 71.6045 60.5342C71.2295 60.9033 70.7451 61.0879 70.1514 61.0879C69.5596 61.0879 69.0771 60.9033 68.7041 60.5342C68.3311 60.1631 68.1445 59.6475 68.1445 58.9873ZM68.9824 58.9873C68.9824 59.4482 69.0879 59.8105 69.2988 60.0742C69.5117 60.3359 69.7969 60.4668 70.1543 60.4668C70.5117 60.4668 70.7959 60.3359 71.0068 60.0742C71.2197 59.8105 71.3262 59.4482 71.3262 58.9873V58.7471C71.3262 58.2861 71.2197 57.9248 71.0068 57.6631C70.7959 57.3994 70.5107 57.2676 70.1514 57.2676C69.7959 57.2676 69.5117 57.3994 69.2988 57.6631C69.0879 57.9248 68.9824 58.2861 68.9824 58.7471V58.9873ZM72.9492 59.459V56.7344H73.7695V59.459C73.7695 59.7988 73.8545 60.0518 74.0244 60.2178C74.1963 60.3838 74.4238 60.4668 74.707 60.4668C74.9922 60.4668 75.2197 60.3838 75.3896 60.2178C75.5615 60.0518 75.6475 59.7988 75.6475 59.459V56.7344H76.4326V59.459C76.4326 60.002 76.2646 60.4092 75.9287 60.6807C75.5928 60.9521 75.1797 61.0879 74.6895 61.0879C74.2012 61.0879 73.7891 60.9521 73.4531 60.6807C73.1172 60.4092 72.9492 60.002 72.9492 59.459ZM77.3818 61V56.7344H78.9727C79.5039 56.7344 79.9141 56.8545 80.2031 57.0947C80.4922 57.333 80.6367 57.6533 80.6367 58.0557C80.6367 58.4541 80.4922 58.7764 80.2031 59.0225C79.9141 59.2666 79.5039 59.3887 78.9727 59.3887H78.2021V61H77.3818ZM78.2021 58.7939H78.9727C79.2871 58.7939 79.5059 58.7217 79.6289 58.5771C79.7539 58.4326 79.8164 58.2578 79.8164 58.0527C79.8164 57.8477 79.7539 57.6758 79.6289 57.5371C79.5059 57.3984 79.2871 57.3291 78.9727 57.3291H78.2021V58.7939ZM79.8486 61L78.832 59.0312L79.7256 58.9961L80.7861 61H79.8486ZM80.915 61L82.4502 56.7139H83.3438L84.8848 61H84.0088L82.9717 57.9268C82.9463 57.8545 82.9238 57.7852 82.9043 57.7188C82.8848 57.6523 82.8662 57.584 82.8486 57.5137H82.8223C82.8066 57.584 82.7881 57.6523 82.7666 57.7188C82.7471 57.7852 82.7246 57.8545 82.6992 57.9268L81.6621 61H80.915ZM81.6357 59.9922L81.8555 59.3945L83.8799 59.3975L84.0996 59.9951L81.6357 59.9922ZM85.3857 61V56.7344H86.2061V61H85.3857ZM87.208 61V56.7344H88.125L89.8037 59.5293C89.8389 59.5879 89.8721 59.6553 89.9033 59.7314C89.9365 59.8057 89.9648 59.8711 89.9883 59.9277H90.0146C90.0088 59.8633 90.0039 59.7803 90 59.6787C89.9961 59.5752 89.9941 59.4912 89.9941 59.4268V56.7344H90.7002V61H89.7861L88.0928 58.208C88.0557 58.1475 88.0225 58.0879 87.9932 58.0293C87.9658 57.9688 87.9414 57.9102 87.9199 57.8535H87.8936C87.8994 57.918 87.9043 57.9873 87.9082 58.0615C87.9121 58.1338 87.9141 58.2021 87.9141 58.2666V61H87.208ZM91.6904 61V56.7344H94.7109V57.332H92.5107V58.498H94.4297V59.0986H92.5107V60.4023H94.7402V61H91.6904Z" fill="white"/>
</svg>
