<svg width="1291" height="364" viewBox="0 0 1291 364" fill="none" xmlns="http://www.w3.org/2000/svg">
<mask id="mask0_2902_24447" style="mask-type:alpha" maskUnits="userSpaceOnUse" x="0" y="0" width="1291" height="364">
<rect width="1291" height="364" fill="#D9D9D9"/>
</mask>
<g mask="url(#mask0_2902_24447)">
<mask id="mask1_2902_24447" style="mask-type:luminance" maskUnits="userSpaceOnUse" x="0" y="0" width="1299" height="473">
<path d="M1299 0H0V472.265H1299V0Z" fill="white"/>
</mask>
<g mask="url(#mask1_2902_24447)">
<path fill-rule="evenodd" clip-rule="evenodd" d="M1083.35 112.036C1080.98 112.041 1078.62 111.61 1076.4 110.765C1074.3 109.998 1072.37 108.811 1070.74 107.276L1074.16 102.377C1075.44 103.536 1076.88 104.488 1078.46 105.196C1079.83 105.858 1081.32 106.22 1082.85 106.259C1083.55 106.3 1084.25 106.131 1084.86 105.774C1085.08 105.629 1085.27 105.427 1085.39 105.188C1085.52 104.949 1085.58 104.681 1085.57 104.411C1085.55 104.14 1085.46 103.879 1085.31 103.655C1085.15 103.431 1084.94 103.253 1084.69 103.14C1083.8 102.644 1082.88 102.219 1081.92 101.869C1080.66 101.382 1079.43 100.827 1078.23 100.206C1077.23 99.6705 1076.36 98.9208 1075.68 98.0101C1074.96 97.0129 1074.58 95.8013 1074.62 94.5675C1074.59 93.0561 1075.03 91.5726 1075.87 90.3153C1076.74 89.0512 1077.95 88.0582 1079.36 87.4502C1080.98 86.7459 1082.74 86.3992 1084.51 86.4335C1086.61 86.4404 1088.7 86.8078 1090.68 87.5197C1092.66 88.2111 1094.53 89.2176 1096.2 90.5006L1092.59 95.3989C1091.27 94.4661 1089.85 93.6762 1088.37 93.0423C1087.24 92.5216 1086.02 92.2235 1084.79 92.1644C1084.18 92.1439 1083.58 92.3134 1083.08 92.6493C1082.87 92.7778 1082.69 92.9577 1082.57 93.1719C1082.45 93.3862 1082.39 93.6279 1082.38 93.8741C1082.41 94.1504 1082.5 94.4159 1082.66 94.6433C1082.82 94.8708 1083.03 95.0519 1083.28 95.1681C1084.18 95.676 1085.11 96.1088 1086.08 96.4621C1087.36 96.9741 1088.62 97.5527 1089.85 98.1955C1090.86 98.7422 1091.74 99.4984 1092.43 100.413C1093.18 101.42 1093.56 102.65 1093.52 103.902C1093.54 105.42 1093.09 106.908 1092.23 108.154C1091.31 109.426 1090.07 110.418 1088.62 111.019C1086.95 111.722 1085.16 112.068 1083.35 112.036ZM1062.79 97.0168C1062.83 96.7257 1062.85 96.4322 1062.84 96.1388C1062.87 95.6247 1062.78 95.1109 1062.6 94.6297C1062.42 94.1485 1062.14 93.7103 1061.78 93.3426C1061.39 92.9869 1060.94 92.7116 1060.45 92.5331C1059.96 92.3546 1059.44 92.2764 1058.91 92.3032C1057.63 92.3006 1056.38 92.7596 1055.4 93.5969C1054.32 94.5098 1053.49 95.6882 1053 97.0169L1062.79 97.0168ZM1058.45 86.4796C1060.68 86.4277 1062.89 86.9028 1064.9 87.8661C1066.66 88.7245 1068.13 90.0827 1069.12 91.7714C1070.14 93.5659 1070.65 95.6021 1070.6 97.6637C1070.58 98.924 1070.42 100.178 1070.14 101.407H1052.4C1052.44 102.034 1052.6 102.646 1052.88 103.21C1053.16 103.773 1053.54 104.276 1054.01 104.689C1055.09 105.506 1056.41 105.915 1057.76 105.843C1059.85 105.833 1061.87 105.098 1063.49 103.764L1067.6 108.247C1064.83 110.774 1061.18 112.131 1057.43 112.036C1055.05 112.09 1052.68 111.617 1050.5 110.65C1048.62 109.803 1047.03 108.421 1045.93 106.675C1044.83 104.868 1044.27 102.783 1044.31 100.668C1044.28 98.131 1044.91 95.6293 1046.14 93.4122C1047.33 91.2849 1049.08 89.526 1051.2 88.3288C1053.41 87.0815 1055.91 86.4435 1058.45 86.4796ZM1036.13 90.5924C1037.14 89.2599 1038.45 88.1844 1039.95 87.4537C1041.45 86.7229 1043.11 86.3576 1044.77 86.3876L1043.8 93.9201C1043.41 93.8842 1043 93.8688 1042.6 93.874C1040.7 93.835 1038.83 94.4012 1037.27 95.4912C1035.81 96.4706 1034.77 97.9511 1034.33 99.6507L1031.93 111.712H1023.71L1028.7 86.7106H1036.92L1036.13 90.5924ZM1009.06 92.7648C1007.92 92.7646 1006.81 93.1111 1005.87 93.7584C1004.88 94.4291 1004.08 95.3443 1003.54 96.4159C1002.97 97.5309 1002.68 98.7675 1002.69 100.02C1002.62 101.392 1003.07 102.738 1003.96 103.787C1004.38 104.256 1004.91 104.625 1005.5 104.868C1006.08 105.112 1006.72 105.224 1007.35 105.196C1008.48 105.2 1009.58 104.862 1010.52 104.226C1011.5 103.562 1012.3 102.655 1012.83 101.591C1013.4 100.461 1013.69 99.209 1013.68 97.9411C1013.76 96.5656 1013.31 95.2118 1012.43 94.1514C1012.01 93.6878 1011.48 93.3234 1010.9 93.0838C1010.32 92.8443 1009.69 92.7353 1009.06 92.7648ZM1012.25 86.4335C1014.02 86.3886 1015.77 86.8635 1017.27 87.7996C1018.78 88.7357 1019.98 90.0921 1020.73 91.7018C1021.57 93.4921 1021.99 95.4534 1021.95 97.4324C1021.98 100.009 1021.39 102.554 1020.22 104.85C1019.13 107.007 1017.49 108.834 1015.46 110.141C1013.47 111.427 1011.15 112.101 1008.78 112.082C1007.13 112.131 1005.5 111.74 1004.05 110.95C1002.73 110.182 1001.67 109.029 1001.02 107.646L1000.19 111.712H992.012L998.804 77.4219H1007.03L1004.58 89.7145C1005.62 88.695 1006.83 87.8729 1008.16 87.2885C1009.45 86.7229 1010.84 86.4317 1012.25 86.4335ZM980.785 86.3877C983.403 86.3877 985.483 87.1348 987.023 88.629C987.796 89.3965 988.401 90.3169 988.799 91.3314C989.197 92.3459 989.379 93.4322 989.333 94.521C989.341 95.3279 989.264 96.1335 989.102 96.924L986.145 111.712H977.921L980.601 98.1257C980.688 97.7153 980.734 97.2973 980.739 96.8779C980.763 96.4066 980.689 95.9354 980.522 95.494C980.356 95.0526 980.099 94.6506 979.769 94.3132C979.408 93.9851 978.985 93.7323 978.524 93.5696C978.064 93.407 977.576 93.3376 977.089 93.3657C976.403 93.3718 975.726 93.5137 975.096 93.7834C974.465 94.0531 973.894 94.445 973.416 94.9367C972.295 96.0359 971.544 97.4576 971.268 99.0038L968.727 111.713H960.503L963.229 98.1258C963.317 97.7312 963.363 97.3284 963.367 96.9241C963.394 96.4456 963.321 95.9667 963.155 95.5175C962.988 95.0682 962.73 94.6583 962.397 94.3133C962.036 93.9852 961.613 93.7324 961.153 93.5698C960.693 93.4071 960.205 93.3377 959.718 93.3658C959.025 93.3685 958.339 93.5088 957.701 93.7784C957.062 94.0481 956.484 94.4418 955.998 94.9368C954.877 96.0361 954.126 97.4577 953.849 99.0039L951.308 111.713H943.084L948.028 86.7111H956.252L955.605 90.0388C956.527 88.8693 957.708 87.9305 959.055 87.2968C960.403 86.6631 961.879 86.3519 963.367 86.3878C965.237 86.3245 967.082 86.8321 968.657 87.8432C970.069 88.7851 971.094 90.2042 971.545 91.8406C974.009 88.2054 977.089 86.3877 980.785 86.3877ZM924.65 105.705C925.785 105.706 926.895 105.368 927.838 104.735C928.834 104.076 929.638 103.168 930.171 102.1C930.746 100.97 931.039 99.7172 931.026 98.4492C931.095 97.0778 930.641 95.7313 929.755 94.6824C929.326 94.2139 928.8 93.845 928.213 93.6016C927.626 93.3582 926.994 93.2463 926.359 93.2737C925.227 93.2711 924.122 93.6181 923.194 94.2674C922.212 94.9433 921.417 95.8573 920.884 96.924C920.313 98.0393 920.02 99.2761 920.03 100.529C919.961 101.9 920.415 103.247 921.3 104.295C921.722 104.761 922.24 105.128 922.819 105.372C923.397 105.615 924.022 105.729 924.65 105.705ZM921.462 112.036C919.691 112.073 917.947 111.595 916.442 110.66C914.937 109.725 913.735 108.372 912.984 106.768C912.14 104.977 911.721 103.016 911.76 101.037C911.726 98.4678 912.321 95.9295 913.492 93.643C914.583 91.4959 916.225 89.6777 918.25 88.3747C920.238 87.0893 922.56 86.4145 924.927 86.4335C928.685 86.4335 931.272 87.9123 932.689 90.8699L933.52 86.7108H941.699L936.754 111.712H928.531L929.131 108.755C928.145 109.796 926.955 110.625 925.636 111.189C924.317 111.754 922.897 112.042 921.462 112.036ZM900.393 86.3877C903.012 86.3877 905.099 87.1425 906.654 88.6521C907.436 89.429 908.048 90.3604 908.449 91.3869C908.851 92.4134 909.034 93.5124 908.988 94.6137C908.978 95.3891 908.901 96.1622 908.756 96.9242L905.753 111.713H897.575L900.255 98.1259C900.343 97.7313 900.389 97.3285 900.393 96.9242C900.42 96.4457 900.348 95.9668 900.181 95.5175C900.014 95.0683 899.756 94.6583 899.424 94.3133C899.062 93.9853 898.639 93.7326 898.179 93.5699C897.719 93.4072 897.231 93.3379 896.743 93.3658C896.05 93.3686 895.365 93.5089 894.727 93.7785C894.088 94.0482 893.51 94.4419 893.025 94.9368C891.906 96.032 891.169 97.4578 890.922 99.004L888.381 111.713H880.157L886.902 77.4222H895.172L892.678 90.0385C893.588 88.8677 894.761 87.9273 896.101 87.2931C897.441 86.6589 898.911 86.3489 900.393 86.3877ZM867.036 78.8082C869.442 78.809 871.82 79.3208 874.013 80.3098C876.151 81.229 878.048 82.6287 879.557 84.4003L874.013 90.3151C873.121 89.0202 871.953 87.9392 870.594 87.1497C869.338 86.392 867.902 85.9851 866.436 85.9716C864.709 85.9637 863.013 86.4358 861.538 87.335C860.036 88.2359 858.801 89.5197 857.958 91.0551C857.077 92.6366 856.623 94.4202 856.641 96.2305C856.619 97.74 856.968 99.2318 857.657 100.575C858.3 101.831 859.274 102.886 860.476 103.625C861.699 104.371 863.109 104.755 864.541 104.734C866.021 104.698 867.477 104.352 868.815 103.718C870.353 103.031 871.766 102.094 872.996 100.945L877.386 106.259C875.432 108.116 873.164 109.611 870.686 110.673C868.376 111.719 865.876 112.277 863.34 112.313C860.548 112.362 857.792 111.677 855.348 110.326C853.053 109.048 851.164 107.151 849.896 104.85C848.58 102.435 847.911 99.7204 847.955 96.9704C847.919 93.712 848.8 90.5091 850.496 87.7273C852.179 84.9654 854.572 82.7069 857.427 81.1882C860.377 79.5951 863.683 78.7764 867.036 78.8082Z" fill="#636364"/>
<path fill-rule="evenodd" clip-rule="evenodd" d="M805.181 188.338C803.171 188.299 801.214 188.981 799.664 190.262C798.103 191.55 797.041 193.342 796.66 195.329H811.661C811.687 193.156 811.131 191.447 809.992 190.204C808.853 188.959 807.25 188.337 805.181 188.338ZM796.424 197.411V197.529C796.379 198.486 796.528 199.443 796.862 200.34C797.196 201.238 797.708 202.059 798.368 202.754C799.055 203.42 799.871 203.938 800.766 204.276C801.661 204.614 802.616 204.764 803.571 204.718C804.79 204.725 806.001 204.512 807.145 204.089C808.247 203.685 809.26 203.071 810.13 202.282L811.386 204.011C810.351 204.962 809.136 205.697 807.812 206.172C806.415 206.675 804.939 206.928 803.453 206.918C801.699 206.955 799.964 206.55 798.407 205.739C796.988 204.987 795.815 203.841 795.03 202.44C794.209 200.936 793.795 199.243 793.831 197.529C793.804 195.487 794.319 193.474 795.324 191.696C796.293 189.98 797.712 188.561 799.428 187.591C801.18 186.593 803.165 186.078 805.181 186.098C807.903 186.098 810.057 186.91 811.641 188.534C813.225 190.157 814.017 192.331 814.017 195.055C814.006 195.844 813.941 196.631 813.821 197.411L796.424 197.411ZM776.71 204.718C778.25 204.727 779.762 204.297 781.068 203.48C782.4 202.66 783.491 201.501 784.23 200.122C785.004 198.701 785.403 197.105 785.389 195.487C785.427 194.55 785.276 193.615 784.946 192.738C784.615 191.86 784.111 191.058 783.464 190.38C782.808 189.723 782.022 189.209 781.157 188.871C780.291 188.533 779.366 188.378 778.438 188.416C776.884 188.404 775.359 188.833 774.039 189.653C772.705 190.477 771.608 191.635 770.858 193.012C770.071 194.429 769.665 196.026 769.68 197.647C769.642 198.586 769.795 199.522 770.129 200.4C770.463 201.277 770.971 202.078 771.624 202.754C772.291 203.413 773.088 203.927 773.962 204.265C774.837 204.603 775.773 204.757 776.71 204.718ZM775.884 206.957C774.271 206.986 772.678 206.586 771.27 205.798C769.935 205.039 768.845 203.915 768.129 202.557C767.364 201.091 766.979 199.457 767.01 197.804C766.986 195.725 767.5 193.675 768.502 191.853C769.452 190.106 770.847 188.643 772.547 187.61C774.25 186.576 776.209 186.038 778.202 186.059C780.068 185.999 781.904 186.535 783.445 187.591C784.874 188.616 785.885 190.122 786.292 191.833L789.159 177.653H791.79L785.977 206.8H783.346L784.17 202.832C783.206 204.117 781.956 205.159 780.519 205.876C779.081 206.596 777.493 206.967 775.884 206.957Z" fill="#636364"/>
<path fill-rule="evenodd" clip-rule="evenodd" d="M1161.85 206.967C1157.1 206.976 1152.39 206.115 1147.95 204.425C1143.74 202.891 1139.89 200.516 1136.63 197.446L1143.46 187.649C1146.01 189.967 1148.91 191.87 1152.06 193.287C1154.8 194.61 1157.79 195.335 1160.84 195.413C1162.24 195.495 1163.64 195.157 1164.85 194.442C1165.31 194.152 1165.68 193.747 1165.93 193.269C1166.18 192.791 1166.31 192.256 1166.29 191.716C1166.29 190.73 1165.7 189.883 1164.53 189.174C1162.75 188.182 1160.9 187.332 1158.99 186.633C1156.47 185.658 1154 184.547 1151.6 183.305C1149.6 182.235 1147.86 180.736 1146.51 178.915C1145.06 176.919 1144.31 174.496 1144.39 172.029C1144.33 169.006 1145.2 166.04 1146.88 163.525C1148.62 160.997 1151.04 159.011 1153.86 157.795C1157.11 156.386 1160.62 155.693 1164.16 155.761C1168.37 155.775 1172.54 156.51 1176.5 157.933C1180.47 159.317 1184.2 161.329 1187.54 163.895L1180.33 173.692C1177.69 171.826 1174.86 170.246 1171.88 168.978C1169.08 167.808 1166.69 167.222 1164.72 167.222C1163.5 167.181 1162.31 167.521 1161.3 168.193C1160.88 168.45 1160.53 168.809 1160.29 169.238C1160.04 169.666 1159.92 170.15 1159.91 170.642C1159.91 171.628 1160.51 172.491 1161.71 173.23C1163.5 174.246 1165.37 175.112 1167.3 175.818C1169.87 176.842 1172.39 177.999 1174.83 179.284C1176.86 180.378 1178.62 181.891 1180.01 183.721C1181.5 185.735 1182.27 188.194 1182.18 190.699C1182.23 193.735 1181.33 196.71 1179.59 199.202C1177.77 201.746 1175.27 203.731 1172.39 204.933C1169.06 206.338 1165.47 207.031 1161.85 206.967ZM1124.24 164.08C1128.74 158.473 1134.5 155.669 1141.52 155.669L1139.58 170.735C1138.78 170.663 1137.98 170.632 1137.18 170.642C1133.37 170.564 1129.63 171.696 1126.51 173.877C1123.6 175.836 1121.51 178.796 1120.64 182.196L1115.84 206.319H1099.39L1109.37 156.316H1125.81L1124.24 164.08ZM1080.44 176.927C1080.52 176.345 1080.55 175.758 1080.54 175.171C1080.59 174.143 1080.42 173.115 1080.06 172.153C1079.69 171.191 1079.13 170.315 1078.41 169.579C1076.99 168.193 1075.08 167.5 1072.68 167.5C1070.11 167.495 1067.62 168.413 1065.66 170.087C1063.49 171.914 1061.84 174.27 1060.85 176.927H1080.44ZM1071.76 155.854C1076.69 155.854 1080.98 156.778 1084.65 158.627C1088.17 160.344 1091.11 163.06 1093.1 166.437C1095.13 170.026 1096.16 174.098 1096.06 178.221C1096.01 180.742 1095.7 183.251 1095.14 185.708H1059.65C1059.96 188.542 1061.04 190.73 1062.89 192.271C1064.74 193.811 1067.23 194.581 1070.37 194.581C1074.56 194.561 1078.61 193.091 1081.83 190.422L1090.05 199.387C1084.51 204.44 1077.73 206.967 1069.72 206.967C1064.43 206.967 1059.81 206.042 1055.86 204.194C1052.1 202.501 1048.92 199.736 1046.72 196.245C1044.52 192.63 1043.39 188.461 1043.48 184.229C1043.41 179.156 1044.67 174.153 1047.13 169.718C1049.51 165.464 1053.01 161.946 1057.25 159.551C1061.67 157.057 1066.68 155.782 1071.76 155.854ZM1036.18 133.302C1037.15 133.252 1038.12 133.402 1039.02 133.744C1039.93 134.086 1040.76 134.612 1041.45 135.289C1042.11 135.985 1042.62 136.806 1042.95 137.703C1043.28 138.6 1043.43 139.555 1043.39 140.511C1043.42 141.884 1043.15 143.247 1042.62 144.513C1042.09 145.778 1041.29 146.918 1040.29 147.859C1039.3 148.838 1038.13 149.608 1036.83 150.124C1035.54 150.64 1034.16 150.891 1032.76 150.863C1031.81 150.907 1030.86 150.754 1029.97 150.412C1029.08 150.07 1028.27 149.547 1027.59 148.876C1026.93 148.18 1026.42 147.359 1026.09 146.462C1025.76 145.565 1025.61 144.61 1025.65 143.654C1025.62 142.281 1025.89 140.918 1026.42 139.652C1026.95 138.386 1027.74 137.247 1028.74 136.306C1029.72 135.333 1030.88 134.566 1032.16 134.05C1033.44 133.534 1034.8 133.279 1036.18 133.302ZM1039.88 156.316L1029.99 206.32H1013.54L1023.52 156.316L1039.88 156.316ZM994.786 189.128C994.648 189.765 994.586 190.417 994.601 191.069C994.601 192.116 994.832 192.841 995.294 193.241C995.925 193.686 996.703 193.869 997.466 193.749C999.314 193.749 1001.62 193.102 1004.4 191.808L1006.15 204.009C1004.09 205.048 1001.9 205.81 999.636 206.273C997.284 206.788 994.884 207.051 992.476 207.058C987.979 207.058 984.406 205.903 981.757 203.593C979.108 201.282 977.783 198.124 977.783 194.119C977.778 192.877 977.902 191.638 978.153 190.421L982.31 169.626H975.473L977.598 158.719H984.528L987.302 144.855H1003.66L1000.88 158.719H1013.82L1011.7 169.626H998.667L994.786 189.128ZM949.045 135.058L962.628 140.234L949.23 150.863L937.957 149.939L949.045 135.058ZM953.757 176.927C953.832 176.345 953.863 175.758 953.85 175.171C953.9 174.143 953.738 173.115 953.372 172.153C953.006 171.191 952.445 170.315 951.725 169.58C950.308 168.193 948.398 167.5 945.996 167.5C943.421 167.495 940.93 168.413 938.973 170.087C936.807 171.914 935.152 174.27 934.168 176.927H953.757ZM945.072 155.854C950 155.854 954.297 156.778 957.962 158.627C961.486 160.344 964.426 163.06 966.417 166.437C968.448 170.027 969.469 174.098 969.374 178.221C969.323 180.742 969.014 183.251 968.45 185.708H932.967C933.275 188.542 934.353 190.73 936.201 192.271C938.049 193.811 940.544 194.581 943.686 194.581C947.871 194.561 951.92 193.091 955.143 190.422L963.368 199.387C957.824 204.44 951.047 206.967 943.039 206.967C937.741 206.967 933.121 206.042 929.178 204.194C925.414 202.501 922.233 199.736 920.031 196.245C917.829 192.63 916.706 188.461 916.796 184.23C916.723 179.156 917.982 174.153 920.446 169.718C922.821 165.464 926.322 161.946 930.564 159.551C934.988 157.058 939.994 155.782 945.072 155.854ZM897.576 141.528H915.872L903.305 206.319H888.429L896.56 164.726L872.904 199.849H862.094L852.206 164.635L844.075 206.319H829.197L841.765 141.527H859.968L871.426 179.885L897.576 141.528Z" fill="#636364"/>
<path fill-rule="evenodd" clip-rule="evenodd" d="M805.835 267.77C806.244 267.766 806.638 267.921 806.935 268.202C807.088 268.341 807.21 268.51 807.291 268.7C807.373 268.89 807.412 269.096 807.406 269.302C807.414 269.571 807.368 269.838 807.269 270.088C807.177 270.297 807.014 270.611 806.778 271.03L804.421 275.312H802.851L804.775 271.07C804.514 270.931 804.298 270.72 804.152 270.463C804.006 270.206 803.936 269.912 803.95 269.617C803.949 269.375 803.996 269.135 804.091 268.912C804.186 268.689 804.325 268.487 804.5 268.32C804.673 268.142 804.881 268.002 805.111 267.907C805.34 267.812 805.587 267.766 805.835 267.77ZM798.373 267.77L792.562 296.918H789.931L795.743 267.77H798.373ZM766.721 278.455C764.71 278.416 762.753 279.099 761.203 280.38C759.642 281.668 758.58 283.46 758.199 285.447H773.201C773.227 283.274 772.67 281.565 771.532 280.321C770.393 279.077 768.789 278.455 766.721 278.455ZM757.963 287.529V287.647C757.918 288.604 758.067 289.561 758.401 290.458C758.735 291.356 759.248 292.177 759.907 292.871C760.594 293.538 761.41 294.055 762.305 294.393C763.2 294.731 764.155 294.882 765.11 294.836C766.33 294.842 767.54 294.629 768.684 294.207C769.786 293.803 770.8 293.189 771.669 292.4L772.925 294.128C771.89 295.08 770.675 295.815 769.352 296.289C767.954 296.793 766.478 297.046 764.993 297.036C763.238 297.073 761.503 296.668 759.946 295.857C758.527 295.104 757.355 293.959 756.569 292.557C755.748 291.053 755.335 289.361 755.371 287.648C755.344 285.605 755.859 283.592 756.863 281.814C757.833 280.097 759.252 278.678 760.967 277.709C762.719 276.711 764.704 276.196 766.72 276.216C769.444 276.216 771.598 277.028 773.181 278.651C774.765 280.275 775.557 282.449 775.556 285.173C775.546 285.962 775.48 286.749 775.36 287.529L757.963 287.529ZM738.249 294.836C739.79 294.844 741.301 294.415 742.608 293.599C743.939 292.777 745.03 291.618 745.769 290.24C746.544 288.818 746.942 287.223 746.928 285.605C746.966 284.668 746.816 283.733 746.485 282.855C746.155 281.978 745.651 281.176 745.004 280.498C744.347 279.841 743.561 279.327 742.696 278.989C741.831 278.651 740.905 278.496 739.977 278.534C738.423 278.521 736.898 278.951 735.578 279.771C734.244 280.595 733.148 281.752 732.398 283.13C731.612 284.547 731.206 286.144 731.219 287.765C731.181 288.703 731.334 289.64 731.668 290.517C732.002 291.395 732.511 292.196 733.163 292.871C733.831 293.53 734.627 294.045 735.502 294.382C736.377 294.72 737.312 294.875 738.249 294.836ZM737.424 297.075C735.81 297.104 734.218 296.704 732.81 295.916C731.475 295.157 730.385 294.033 729.668 292.675C728.903 291.209 728.518 289.575 728.549 287.922C728.525 285.843 729.039 283.793 730.042 281.971C730.991 280.224 732.387 278.76 734.086 277.728C735.789 276.693 737.748 276.156 739.741 276.176C741.607 276.116 743.444 276.653 744.984 277.708C746.413 278.733 747.425 280.239 747.831 281.951L750.698 267.77H753.33L747.517 296.917H744.886L745.71 292.95C744.746 294.234 743.495 295.277 742.058 295.994C740.62 296.714 739.032 297.084 737.424 297.075ZM707.224 290.908C707.121 291.385 707.069 291.872 707.067 292.361C707.011 292.978 707.202 293.592 707.597 294.069C707.82 294.261 708.079 294.407 708.359 294.498C708.639 294.589 708.934 294.623 709.227 294.599C710.522 294.51 711.776 294.106 712.879 293.421L713.428 295.542C712 296.441 710.363 296.955 708.677 297.035C707.532 297.102 706.406 296.722 705.536 295.975C705.138 295.567 704.83 295.08 704.634 294.545C704.437 294.01 704.357 293.439 704.397 292.871C704.41 292.277 704.475 291.686 704.593 291.104L707.028 278.965H704.043L704.437 276.883H707.421L708.482 271.619H711.113L710.052 276.883H716.689L716.296 278.965H709.62L707.224 290.908ZM690.494 278.455C688.484 278.416 686.527 279.099 684.977 280.38C683.416 281.668 682.354 283.46 681.973 285.447H696.974C697 283.274 696.444 281.565 695.305 280.321C694.166 279.077 692.563 278.455 690.494 278.455ZM681.737 287.529V287.647C681.692 288.604 681.841 289.56 682.175 290.458C682.509 291.356 683.021 292.177 683.681 292.871C684.368 293.537 685.184 294.055 686.079 294.393C686.974 294.731 687.929 294.882 688.884 294.836C690.103 294.842 691.314 294.629 692.458 294.207C693.56 293.802 694.573 293.189 695.443 292.4L696.699 294.128C695.664 295.08 694.449 295.815 693.125 296.289C691.728 296.793 690.252 297.046 688.767 297.036C687.012 297.073 685.276 296.667 683.72 295.857C682.3 295.104 681.128 293.959 680.343 292.557C679.522 291.053 679.109 289.361 679.145 287.648C679.118 285.605 679.633 283.592 680.637 281.813C681.607 280.098 683.026 278.678 684.741 277.709C686.493 276.711 688.478 276.196 690.494 276.216C693.217 276.216 695.371 277.028 696.955 278.651C698.539 280.275 699.331 282.448 699.33 285.172C699.319 285.962 699.254 286.749 699.134 287.529L681.737 287.529Z" fill="#636364"/>
<path fill-rule="evenodd" clip-rule="evenodd" d="M1256.38 281.556C1256.24 282.193 1256.18 282.844 1256.2 283.496C1256.2 284.544 1256.43 285.268 1256.89 285.669C1257.52 286.114 1258.3 286.296 1259.06 286.177C1260.91 286.177 1263.22 285.53 1265.99 284.236L1267.75 296.436C1265.68 297.475 1263.49 298.237 1261.23 298.701C1258.88 299.216 1256.48 299.479 1254.07 299.486C1249.57 299.486 1246 298.331 1243.35 296.02C1240.7 293.71 1239.38 290.552 1239.38 286.546C1239.37 285.305 1239.5 284.066 1239.75 282.85L1243.91 262.053H1237.07L1239.19 251.147H1246.12L1248.89 237.283H1265.25L1262.48 251.147H1275.42L1273.29 262.053H1260.26L1256.38 281.556ZM1197.52 286.731C1199.79 286.734 1202.01 286.058 1203.9 284.79C1205.89 283.474 1207.5 281.657 1208.56 279.522C1209.71 277.261 1210.3 274.756 1210.27 272.22C1210.27 269.077 1209.42 266.567 1207.73 264.687C1206.87 263.75 1205.82 263.011 1204.65 262.524C1203.47 262.037 1202.21 261.813 1200.94 261.868C1198.67 261.863 1196.46 262.557 1194.61 263.855C1192.64 265.207 1191.05 267.036 1189.99 269.17C1188.85 271.4 1188.26 273.873 1188.28 276.379C1188.28 279.522 1189.13 282.033 1190.82 283.912C1191.66 284.843 1192.7 285.578 1193.86 286.066C1195.01 286.553 1196.26 286.78 1197.52 286.731ZM1191.14 299.394C1187.6 299.468 1184.11 298.511 1181.1 296.641C1178.09 294.771 1175.69 292.067 1174.19 288.857C1172.5 285.276 1171.66 281.354 1171.74 277.396C1171.67 272.258 1172.86 267.181 1175.2 262.607C1177.39 258.313 1180.67 254.677 1184.72 252.071C1188.7 249.5 1193.34 248.15 1198.07 248.189C1205.59 248.189 1210.76 251.147 1213.6 257.062L1215.26 248.744H1231.62L1221.73 298.747H1205.28L1206.48 292.831C1202.11 297.207 1196.99 299.394 1191.14 299.394ZM1149.01 248.096C1154.24 248.096 1158.4 249.591 1161.48 252.579C1164.56 255.568 1166.1 259.496 1166.1 264.364C1166.12 265.978 1165.96 267.589 1165.64 269.17L1159.73 298.747H1143.28L1148.73 271.574C1148.91 270.784 1149 269.979 1149.01 269.17C1149.01 266.952 1148.36 265.211 1147.07 263.948C1145.77 262.684 1143.99 262.053 1141.71 262.053C1140.32 262.058 1138.95 262.339 1137.67 262.878C1136.4 263.417 1135.24 264.205 1134.27 265.195C1132.03 267.394 1130.52 270.237 1129.97 273.329L1124.89 298.746H1108.44L1118.33 248.743H1134.78L1133.48 255.398C1135.33 253.059 1137.69 251.182 1140.38 249.914C1143.08 248.647 1146.03 248.024 1149.01 248.096ZM1071.57 286.731C1073.84 286.734 1076.06 286.058 1077.95 284.79C1079.94 283.474 1081.55 281.657 1082.62 279.522C1083.76 277.261 1084.35 274.756 1084.32 272.22C1084.32 269.077 1083.48 266.567 1081.78 264.687C1080.93 263.749 1079.87 263.011 1078.7 262.524C1077.53 262.037 1076.26 261.813 1074.99 261.868C1072.73 261.863 1070.52 262.557 1068.66 263.855C1066.7 265.207 1065.11 267.036 1064.04 269.17C1062.9 271.4 1062.31 273.873 1062.33 276.379C1062.33 279.522 1063.18 282.033 1064.87 283.912C1065.72 284.843 1066.75 285.578 1067.91 286.065C1069.07 286.553 1070.32 286.78 1071.57 286.731ZM1065.2 299.394C1061.65 299.468 1058.17 298.511 1055.16 296.641C1052.15 294.771 1049.74 292.067 1048.24 288.857C1046.55 285.277 1045.71 281.354 1045.79 277.396C1045.72 272.258 1046.91 267.181 1049.26 262.607C1051.44 258.313 1054.72 254.677 1058.77 252.071C1062.75 249.5 1067.39 248.15 1072.13 248.189C1079.64 248.189 1084.82 251.147 1087.65 257.062L1089.31 248.744H1105.67L1095.78 298.747H1079.33L1080.54 292.831C1076.16 297.207 1071.05 299.394 1065.2 299.394ZM1018.72 299.394C1013.97 299.404 1009.25 298.542 1004.81 296.852C1000.6 295.318 996.753 292.944 993.492 289.874L1000.33 280.077C1002.88 282.394 1005.78 284.297 1008.92 285.715C1011.67 287.038 1014.66 287.762 1017.7 287.841C1019.11 287.923 1020.51 287.585 1021.72 286.87C1022.18 286.579 1022.55 286.175 1022.8 285.697C1023.05 285.219 1023.17 284.683 1023.15 284.143C1023.15 283.157 1022.57 282.31 1021.4 281.602C1019.62 280.609 1017.77 279.76 1015.85 279.06C1013.33 278.086 1010.86 276.975 1008.46 275.732C1006.46 274.662 1004.73 273.163 1003.38 271.342C1001.93 269.347 1001.18 266.924 1001.25 264.456C1001.2 261.434 1002.07 258.467 1003.75 255.953C1005.49 253.424 1007.91 251.438 1010.72 250.222C1013.97 248.814 1017.49 248.12 1021.03 248.189C1025.23 248.203 1029.41 248.938 1033.36 250.361C1037.34 251.744 1041.07 253.757 1044.41 256.323L1037.2 266.12C1034.56 264.254 1031.72 262.674 1028.74 261.406C1025.94 260.235 1023.55 259.65 1021.58 259.65C1020.37 259.608 1019.17 259.948 1018.16 260.621C1017.74 260.877 1017.4 261.237 1017.15 261.665C1016.91 262.094 1016.78 262.577 1016.78 263.07C1016.78 264.056 1017.38 264.919 1018.58 265.658C1020.37 266.674 1022.24 267.54 1024.17 268.246C1026.74 269.27 1029.25 270.427 1031.7 271.712C1033.72 272.806 1035.49 274.318 1036.88 276.148C1038.37 278.162 1039.13 280.622 1039.05 283.127C1039.1 286.163 1038.19 289.138 1036.46 291.63C1034.64 294.173 1032.14 296.158 1029.25 297.36C1025.92 298.766 1022.33 299.459 1018.72 299.394ZM990.165 225.729C991.133 225.679 992.1 225.83 993.007 226.172C993.913 226.514 994.739 227.04 995.432 227.716C996.089 228.413 996.598 229.234 996.932 230.131C997.265 231.028 997.415 231.982 997.373 232.938C997.398 234.311 997.135 235.675 996.602 236.94C996.069 238.205 995.277 239.345 994.277 240.287C993.287 241.265 992.11 242.036 990.816 242.552C989.523 243.067 988.139 243.319 986.746 243.29C985.793 243.335 984.841 243.181 983.95 242.839C983.06 242.497 982.25 241.974 981.571 241.303C980.915 240.606 980.405 239.785 980.072 238.888C979.739 237.991 979.589 237.037 979.631 236.081C979.606 234.708 979.869 233.345 980.402 232.079C980.935 230.814 981.727 229.674 982.727 228.733C983.703 227.76 984.864 226.993 986.142 226.477C987.419 225.961 988.788 225.707 990.165 225.729ZM993.861 248.744L983.974 298.747H967.526L977.506 248.744H993.861ZM948.768 281.555C948.63 282.193 948.567 282.844 948.583 283.496C948.583 284.544 948.814 285.268 949.276 285.668C949.906 286.113 950.685 286.296 951.448 286.177C953.296 286.177 955.606 285.53 958.378 284.236L960.133 296.436C958.071 297.475 955.881 298.237 953.619 298.7C951.267 299.215 948.866 299.479 946.458 299.486C941.961 299.486 938.388 298.331 935.739 296.02C933.091 293.709 931.766 290.551 931.766 286.546C931.76 285.304 931.884 284.065 932.135 282.849L936.294 262.052H929.455L931.58 251.146H938.511L941.283 237.283H957.639L954.867 251.146H967.804L965.678 262.052H952.649L948.768 281.555ZM911.252 256.508C915.749 250.9 921.509 248.096 928.532 248.096L926.59 263.162C925.792 263.09 924.99 263.059 924.189 263.07C920.379 262.992 916.642 264.124 913.516 266.305C910.606 268.263 908.517 271.224 907.648 274.623L902.843 298.747H886.395L896.374 248.744H912.823L911.252 256.508ZM839.084 274.346H857.196L852.113 250.869L839.084 274.346ZM862.463 298.747L859.967 287.286H831.877L825.501 298.747H808.222L846.754 233.955H864.126L880.574 298.747H862.463Z" fill="#636364"/>
</g>
<mask id="mask2_2902_24447" style="mask-type:luminance" maskUnits="userSpaceOnUse" x="0" y="0" width="1299" height="473">
<path d="M1299 0H0V472.265H1299V0Z" fill="white"/>
</mask>
<g mask="url(#mask2_2902_24447)">
<path fill-rule="evenodd" clip-rule="evenodd" d="M559.396 227.7H471.159L451.289 286.233C451.289 286.233 521.153 295.001 567.562 251.119L559.396 227.7Z" fill="#636364"/>
<path fill-rule="evenodd" clip-rule="evenodd" d="M394.249 194.427C394.224 217.142 398.695 239.637 407.405 260.615L484.196 43.3711C456.946 58.0575 434.189 79.8625 418.35 106.463C402.51 133.064 394.181 163.465 394.249 194.427Z" fill="#636364"/>
<path fill-rule="evenodd" clip-rule="evenodd" d="M607.997 57.7646C589.427 48.3406 564.3 41.2068 544.012 38.9824H543.43L599.476 203.561C616.064 173.767 631.967 109.989 607.997 57.7646Z" fill="#636364"/>
<path fill-rule="evenodd" clip-rule="evenodd" d="M311.407 168.451C309.747 172.825 283.174 243.247 275.783 262.81C291.615 258.473 307.032 252.742 321.853 245.684C318.15 218.329 311.911 172.24 311.407 168.451ZM209.968 268.159C224.941 270.353 242.052 269.612 260.425 266.015C256.127 254.201 226.612 173.122 224.911 168.451C222.567 183.916 221.694 190.504 209.968 268.159Z" fill="#636364"/>
<path fill-rule="evenodd" clip-rule="evenodd" d="M198.999 117.98C191.029 123.414 177.798 135.113 167.7 157.539C149.174 198.664 166.44 233.954 176.759 249.644L198.999 117.98Z" fill="#636364"/>
<path fill-rule="evenodd" clip-rule="evenodd" d="M231.906 104.598C240.626 126.208 269.465 197.652 270.973 201.367C272.439 197.578 300.815 124.104 308.69 103.695C277.139 98.8253 249.225 99.6155 231.906 104.598Z" fill="#636364"/>
<path fill-rule="evenodd" clip-rule="evenodd" d="M371.368 150.566C366.212 130.794 356.498 117.438 337.21 111.397L354.429 225.505C377.967 202.958 376.523 170.339 371.368 150.566Z" fill="#636364"/>
<path fill-rule="evenodd" clip-rule="evenodd" d="M392.967 331.649C190.97 331.649 74.9068 278.438 74.9068 195.922C74.9068 113.711 184.312 61.7759 366.049 55.812C371.143 55.645 378.28 55.4969 387.46 55.3677C388.576 55.3521 389.672 55.0727 390.659 54.5522C391.646 54.0316 392.496 53.2848 393.139 52.3728C393.782 51.4608 394.2 50.4095 394.36 49.3048C394.519 48.2001 394.414 47.0734 394.054 46.0169C393.141 43.3317 391.399 41.0058 389.079 39.3738C386.76 37.7419 383.983 36.8881 381.148 36.9355C373.852 37.057 368.113 37.1833 363.93 37.3145C148.278 44.0447 19.1055 110.043 19.1055 195.468C19.1055 303.238 194.319 350.586 376.235 350.586C456.158 350.586 540.988 342.296 630.724 325.717C631.938 325.493 633.09 325.009 634.101 324.3C635.111 323.591 635.958 322.672 636.582 321.607C637.206 320.541 637.593 319.354 637.718 318.125C637.842 316.897 637.701 315.655 637.303 314.486C636.418 311.886 634.625 309.693 632.253 308.311C629.88 306.928 627.089 306.448 624.391 306.959C537.58 323.42 460.439 331.65 392.967 331.649Z" fill="#636364"/>
<path fill-rule="evenodd" clip-rule="evenodd" d="M484.196 186.006H545.623L515.078 91.6475L484.196 186.006Z" fill="#636364"/>
</g>
</g>
</svg>
