<svg width="14" height="18" viewBox="0 0 14 18" fill="none" xmlns="http://www.w3.org/2000/svg">
<path d="M5.68494 1.79761L6.34744 0.9521C6.62796 0.594092 7.08156 0.594092 7.35909 0.9521L13.1604 8.3522C13.4409 8.71021 13.4409 9.28911 13.1604 9.64331L7.35909 17.0472C7.07858 17.4052 6.62497 17.4052 6.34744 17.0472L5.68494 16.2017C5.40144 15.8399 5.40741 15.2496 5.69688 14.8954L9.29287 10.5231H0.716214C0.319312 10.5231 0 10.1156 0 9.60903V8.39028C0 7.88374 0.319312 7.47622 0.716214 7.47622H9.29287L5.69688 3.10396C5.40443 2.74976 5.39846 2.15942 5.68494 1.79761Z" fill="#924032"/>
</svg>
