<svg width="14" height="18" viewBox="0 0 14 18" fill="none" xmlns="http://www.w3.org/2000/svg">
<path d="M5.68494 1.79794L6.34744 0.952435C6.62796 0.594427 7.08156 0.594427 7.35909 0.952435L13.1604 8.35253C13.4409 8.71054 13.4409 9.28945 13.1604 9.64365L7.35909 17.0476C7.07858 17.4056 6.62497 17.4056 6.34744 17.0476L5.68494 16.202C5.40144 15.8402 5.40741 15.2499 5.69688 14.8957L9.29287 10.5234H0.716214C0.319312 10.5234 0 10.1159 0 9.60937V8.39062C0 7.88408 0.319312 7.47656 0.716214 7.47656H9.29287L5.69688 3.10429C5.40443 2.75009 5.39846 2.15976 5.68494 1.79794Z" fill="#69725D"/>
</svg>
