<svg width="47" height="45" viewBox="0 0 47 45" fill="none" xmlns="http://www.w3.org/2000/svg">
<path d="M28.2878 6.65357C29.2757 3.86118 30.3815 1.12988 30.3815 1.12988C33.6397 3.45171 36.5523 6.87747 37.6421 11.7546C37.8557 12.7105 37.5877 13.7109 36.9248 14.4319C33.5426 18.1109 29.3073 19.6212 25.3248 20.0028C25.3248 20.0028 25.7597 16.8906 26.3267 13.8868L23.1124 13.0255C20.1226 12.2244 16.9333 12.7299 14.3377 14.4163L14.188 14.5136L16.0863 11.4399C18.62 7.33742 23.5446 5.38262 28.202 6.63058L28.2878 6.65357Z" fill="#D1E4B8" stroke="#69725D" stroke-width="1.5" stroke-linejoin="round"/>
<path d="M7.37833 32.2593C4.42542 32.0279 1.50098 31.6666 1.50098 31.6666C2.90039 27.9185 5.4556 24.2185 9.88452 21.9035C10.7525 21.4498 11.7882 21.4498 12.6562 21.9034C17.0852 24.2182 19.6403 27.9183 21.0396 31.6664C21.0396 31.6664 17.9209 32.0517 14.8727 32.2816V35.6092C14.8727 38.7045 16.1864 41.6543 18.4871 43.7249L18.6199 43.8444L15.1595 42.8063C10.5411 41.4208 7.37833 37.1699 7.37833 32.3482V32.2593Z" fill="#D1E4B8" stroke="#69725D" stroke-width="1.5" stroke-linejoin="round"/>
<path d="M41.5784 37.6366C43.255 40.0784 44.8127 42.5797 44.8127 42.5797C41.0182 43.848 36.5345 44.1873 31.9497 42.1988C31.0512 41.8091 30.4 41.0037 30.2071 40.0435C29.2224 35.1441 30.4933 30.8308 32.528 27.3861C32.528 27.3861 34.7885 29.569 36.8837 31.7949L39.4714 29.7027C41.8784 27.7566 43.3462 24.8803 43.5099 21.7894L43.5193 21.6111L44.8877 24.9546C46.714 29.4171 45.397 34.5492 41.6475 37.5808L41.5784 37.6366Z" fill="#D1E4B8" stroke="#69725D" stroke-width="1.5" stroke-linejoin="round"/>
</svg>
