<svg width="45" height="43" viewBox="0 0 45 43" fill="none" xmlns="http://www.w3.org/2000/svg">
<path d="M1.50244 25.6501L21.796 1.66671C22.1955 1.19463 22.9234 1.19463 23.3228 1.66671L43.6164 25.6501" stroke="#69725D" stroke-width="1.5" stroke-linecap="round" stroke-linejoin="round"/>
<path d="M7.91448 18.6612L21.7847 1.71034C22.1848 1.22138 22.9325 1.22138 23.3326 1.71034L37.2028 18.6612L38.4585 28.0581C38.705 29.9021 38.6929 31.7715 38.4227 33.6121L37.4538 40.2119C37.3097 41.1937 36.4674 41.9214 35.475 41.9214H9.64231C8.64995 41.9214 7.80766 41.1937 7.66352 40.2119L6.69466 33.6121C6.42444 31.7715 6.41237 29.9021 6.65878 28.0581L7.91448 18.6612Z" fill="#E8CEBF" stroke="#69725D" stroke-width="1.5" stroke-linejoin="round"/>
<path d="M23.038 24.6934C26.474 24.6934 29.2594 27.4258 29.2594 30.7964V41.9218H16.8167V30.7964C16.8167 27.4258 19.6021 24.6934 23.038 24.6934Z" fill="white" stroke="#69725D" stroke-width="1.5" stroke-linecap="round" stroke-linejoin="round"/>
</svg>
