<svg width="40" height="40" viewBox="0 0 40 40" fill="none" xmlns="http://www.w3.org/2000/svg">
<g clip-path="url(#clip0_404_22213)">
<rect opacity="0.1" width="40" height="40" rx="20" fill="#D5E2E4"/>
<path d="M20.334 16.7402C18.334 16.7402 16.7402 18.3652 16.7402 20.334C16.7402 22.334 18.334 23.9277 20.334 23.9277C22.3027 23.9277 23.9277 22.334 23.9277 20.334C23.9277 18.3652 22.3027 16.7402 20.334 16.7402ZM20.334 22.6777C19.0527 22.6777 17.9902 21.6465 17.9902 20.334C17.9902 19.0527 19.0215 18.0215 20.334 18.0215C21.6152 18.0215 22.6465 19.0527 22.6465 20.334C22.6465 21.6465 21.6152 22.6777 20.334 22.6777ZM24.8965 16.6152C24.8965 16.1465 24.5215 15.7715 24.0527 15.7715C23.584 15.7715 23.209 16.1465 23.209 16.6152C23.209 17.084 23.584 17.459 24.0527 17.459C24.5215 17.459 24.8965 17.084 24.8965 16.6152ZM27.2715 17.459C27.209 16.334 26.959 15.334 26.1465 14.5215C25.334 13.709 24.334 13.459 23.209 13.3965C22.0527 13.334 18.584 13.334 17.4277 13.3965C16.3027 13.459 15.334 13.709 14.4902 14.5215C13.6777 15.334 13.4277 16.334 13.3652 17.459C13.3027 18.6152 13.3027 22.084 13.3652 23.2402C13.4277 24.3652 13.6777 25.334 14.4902 26.1777C15.334 26.9902 16.3027 27.2402 17.4277 27.3027C18.584 27.3652 22.0527 27.3652 23.209 27.3027C24.334 27.2402 25.334 26.9902 26.1465 26.1777C26.959 25.334 27.209 24.3652 27.2715 23.2402C27.334 22.084 27.334 18.6152 27.2715 17.459ZM25.7715 24.459C25.5527 25.084 25.0527 25.5527 24.459 25.8027C23.5215 26.1777 21.334 26.084 20.334 26.084C19.3027 26.084 17.1152 26.1777 16.209 25.8027C15.584 25.5527 15.1152 25.084 14.8652 24.459C14.4902 23.5527 14.584 21.3652 14.584 20.334C14.584 19.334 14.4902 17.1465 14.8652 16.209C15.1152 15.6152 15.584 15.1465 16.209 14.8965C17.1152 14.5215 19.3027 14.6152 20.334 14.6152C21.334 14.6152 23.5215 14.5215 24.459 14.8965C25.0527 15.1152 25.5215 15.6152 25.7715 16.209C26.1465 17.1465 26.0527 19.334 26.0527 20.334C26.0527 21.3652 26.1465 23.5527 25.7715 24.459Z" fill="#D3D6D8"/>
</g>
<defs>
<clipPath id="clip0_404_22213">
<rect width="40" height="40" fill="white"/>
</clipPath>
</defs>
</svg>
