<svg width="40" height="41" viewBox="0 0 40 41" fill="none" xmlns="http://www.w3.org/2000/svg">
<rect x="6" y="6" width="28" height="29" rx="14" stroke="#616060"/>
<path d="M26.334 14.333C26.8652 14.333 27.334 14.8018 27.334 15.3643V27.333C27.334 27.8955 26.8652 28.333 26.334 28.333H14.3027C13.7715 28.333 13.334 27.8955 13.334 27.333V15.3643C13.334 14.8018 13.7715 14.333 14.3027 14.333H26.334ZM17.5527 26.333V19.6768H15.4902V26.333H17.5527ZM16.5215 18.7393C17.1777 18.7393 17.709 18.208 17.709 17.5518C17.709 16.8955 17.1777 16.333 16.5215 16.333C15.834 16.333 15.3027 16.8955 15.3027 17.5518C15.3027 18.208 15.834 18.7393 16.5215 18.7393ZM25.334 26.333V22.6768C25.334 20.8955 24.9277 19.4893 22.834 19.4893C21.834 19.4893 21.1465 20.0518 20.8652 20.583H20.834V19.6768H18.8652V26.333H20.9277V23.0518C20.9277 22.1768 21.084 21.333 22.1777 21.333C23.2402 21.333 23.2402 22.333 23.2402 23.083V26.333H25.334Z" fill="#616060"/>
</svg>
