<svg width="40" height="40" viewBox="0 0 40 40" fill="none" xmlns="http://www.w3.org/2000/svg">
    <g clip-path="url(#clip0_404_22218)">
    <rect opacity="0.1" width="40" height="40" rx="20" fill="#D5E2E4"/>
    <path d="M26.334 13.334H14.3027C13.7715 13.334 13.334 13.8027 13.334 14.3652V26.334C13.334 26.8965 13.7715 27.334 14.3027 27.334H26.334C26.8652 27.334 27.334 26.8965 27.334 26.334V14.3652C27.334 13.8027 26.8652 13.334 26.334 13.334ZM17.5527 25.334H15.4902V18.6777H17.5527V25.334ZM16.5215 17.7402C15.834 17.7402 15.3027 17.209 15.3027 16.5527C15.3027 15.8965 15.834 15.334 16.5215 15.334C17.1777 15.334 17.709 15.8965 17.709 16.5527C17.709 17.209 17.1777 17.7402 16.5215 17.7402ZM25.334 25.334H23.2402V22.084C23.2402 21.334 23.2402 20.334 22.1777 20.334C21.084 20.334 20.9277 21.1777 20.9277 22.0527V25.334H18.8652V18.6777H20.834V19.584H20.8652C21.1465 19.0527 21.834 18.4902 22.834 18.4902C24.9277 18.4902 25.334 19.8965 25.334 21.6777V25.334Z" fill="#D3D6D8"/>
    </g>
    <defs>
    <clipPath id="clip0_404_22218">
    <rect width="40" height="40" fill="white"/>
    </clipPath>
    </defs>
</svg>
