<svg width="34" height="44" viewBox="0 0 34 44" fill="none" xmlns="http://www.w3.org/2000/svg">
<path d="M17.1808 42.3355C20.0359 40.0408 32.4503 29.3715 32.4503 17.3388C32.4503 8.58506 25.354 1.48877 16.6003 1.48877C7.84654 1.48877 0.750244 8.58506 0.750244 17.3388C0.750244 29.3715 13.1647 40.0408 16.0197 42.3355C16.3654 42.6133 16.8351 42.6133 17.1808 42.3355Z" fill="#D6A594" stroke="#924032" stroke-width="1.5" stroke-linecap="round" stroke-linejoin="round"/>
<path d="M16.6017 22.9C20.1871 22.9 23.0936 19.9935 23.0936 16.4081C23.0936 12.8228 20.1871 9.91626 16.6017 9.91626C13.0164 9.91626 10.1099 12.8228 10.1099 16.4081C10.1099 19.9935 13.0164 22.9 16.6017 22.9Z" fill="white" stroke="#924032" stroke-width="1.5" stroke-linecap="round" stroke-linejoin="round"/>
</svg>
