<svg width="42" height="44" viewBox="0 0 42 44" fill="none" xmlns="http://www.w3.org/2000/svg">
<path d="M1.93033 23.5225L11.7145 4.80699C14.2771 -0.0946823 21.7343 -0.09468 24.2969 4.80699L34.0811 23.5225C36.3607 27.883 32.9725 32.9726 27.7899 32.9726H8.22149C3.03897 32.9726 -0.349293 27.883 1.93033 23.5225Z" fill="#D1E4B8" stroke="#69725D" stroke-width="1.5" stroke-linejoin="round"/>
<path d="M12.9537 20.9596L18.0056 25.2667V41.0593" stroke="#69725D" stroke-width="1.5" stroke-linecap="round" stroke-linejoin="round"/>
<path d="M18.007 25.2667L23.0588 20.9596" stroke="#69725D" stroke-width="1.5" stroke-linecap="round" stroke-linejoin="round"/>
<path d="M35.3957 36.5795C34.2712 37.6563 32.7028 38.3245 30.9679 38.3245C29.2329 38.3245 27.6646 37.6563 26.54 36.5795C26.3388 36.6024 26.1339 36.6142 25.9261 36.6142C23.1416 36.6142 20.8844 34.4994 20.8844 31.8907C20.8844 29.5184 22.751 27.5546 25.1833 27.2181C26.0761 25.0406 28.3293 23.495 30.9679 23.495C33.6064 23.495 35.8596 25.0406 36.7524 27.2181C39.1848 27.5545 41.0515 29.5183 41.0515 31.8907C41.0515 34.4994 38.7942 36.6142 36.0098 36.6142C35.8019 36.6142 35.597 36.6024 35.3957 36.5795Z" fill="white" stroke="#69725D" stroke-width="1.5" stroke-linecap="round" stroke-linejoin="round"/>
<path d="M28.5183 32.0266L30.8876 34.2464V42.3855" stroke="#69725D" stroke-width="1.5" stroke-linecap="round" stroke-linejoin="round"/>
<path d="M30.8865 34.2464L33.2557 32.0266" stroke="#69725D" stroke-width="1.5" stroke-linecap="round" stroke-linejoin="round"/>
</svg>
