<svg width="42" height="40" viewBox="0 0 42 40" fill="none" xmlns="http://www.w3.org/2000/svg">
<g clip-path="url(#clip0_404_22208)">
<rect opacity="0.1" width="42" height="40" rx="20" fill="#D5E2E4"/>
<path d="M27.6777 17.084C28.3027 16.6152 28.8652 16.0527 29.3027 15.3965C28.7402 15.6465 28.084 15.834 27.4277 15.8965C28.1152 15.4902 28.6152 14.8652 28.8652 14.084C28.2402 14.459 27.5215 14.7402 26.8027 14.8965C26.1777 14.2402 25.334 13.8652 24.3965 13.8652C22.584 13.8652 21.1152 15.334 21.1152 17.1465C21.1152 17.3965 21.1465 17.6465 21.209 17.8965C18.4902 17.7402 16.0527 16.4277 14.4277 14.459C14.1465 14.9277 13.9902 15.4902 13.9902 16.1152C13.9902 17.2402 14.5527 18.2402 15.459 18.834C14.9277 18.8027 14.3965 18.6777 13.959 18.4277V18.459C13.959 20.0527 15.084 21.3652 16.584 21.6777C16.334 21.7402 16.0215 21.8027 15.7402 21.8027C15.5215 21.8027 15.334 21.7715 15.1152 21.7402C15.5215 23.0527 16.7402 23.9902 18.1777 24.0215C17.0527 24.8965 15.6465 25.4277 14.1152 25.4277C13.834 25.4277 13.584 25.3965 13.334 25.3652C14.7715 26.3027 16.4902 26.834 18.3652 26.834C24.3965 26.834 27.6777 21.8652 27.6777 17.5215C27.6777 17.3652 27.6777 17.2402 27.6777 17.084Z" fill="#D3D6D8"/>
</g>
<defs>
<clipPath id="clip0_404_22208">
<rect width="42" height="40" fill="white"/>
</clipPath>
</defs>
</svg>
