<svg width="40" height="40" viewBox="0 0 40 40" fill="none" xmlns="http://www.w3.org/2000/svg">
<path d="M35.9451 6.00801L33.0668 14.5059C32.9674 14.7025 32.9157 14.9196 32.9157 15.1398C32.9157 15.3601 32.9674 15.5772 33.0668 15.7738L38.4465 22.9696C38.6011 23.1755 38.6946 23.4209 38.7162 23.6775C38.7377 23.9341 38.6866 24.1916 38.5686 24.4205C38.4505 24.6494 38.2704 24.8404 38.0488 24.9717C37.8273 25.1029 37.5732 25.1691 37.3158 25.1626H28.3381C28.1181 25.169 27.9023 25.2247 27.7066 25.3255C27.511 25.4263 27.3404 25.5697 27.2074 25.7451L22.2046 32.9409C22.0578 33.1512 21.855 33.3162 21.6192 33.417C21.3834 33.5178 21.124 33.5505 20.8706 33.5112C20.6171 33.4719 20.3798 33.3623 20.1855 33.1949C19.9913 33.0275 19.8479 32.8089 19.7717 32.564L17.099 23.9975C17.038 23.7858 16.9242 23.593 16.7684 23.4372C16.6126 23.2813 16.4198 23.1676 16.208 23.1066L7.6416 20.4339C7.39672 20.3577 7.17813 20.2143 7.01068 20.0201C6.84323 19.8258 6.73365 19.5885 6.69438 19.335C6.65512 19.0816 6.68775 18.8222 6.78856 18.5864C6.88938 18.3506 7.05433 18.1478 7.26467 18.001L14.5975 12.8269C14.7729 12.6939 14.9163 12.5233 15.0171 12.3276C15.1179 12.1319 15.1736 11.9161 15.1801 11.6961V2.71849C15.1896 2.48269 15.2599 2.25336 15.3841 2.05269C15.5083 1.85203 15.6823 1.68683 15.889 1.5731C16.0958 1.45937 16.3285 1.40096 16.5644 1.40352C16.8004 1.40608 17.0317 1.46953 17.236 1.58772L24.4318 6.96745C24.6145 7.09433 24.8247 7.17602 25.0451 7.2058C25.2655 7.23559 25.4899 7.21262 25.6997 7.13878L34.1976 4.26045C34.4413 4.1748 34.7042 4.15977 34.9561 4.21707C35.208 4.27438 35.4386 4.40171 35.6212 4.58437C35.8039 4.76703 35.9312 4.99759 35.9885 5.24947C36.0458 5.50135 36.0308 5.7643 35.9451 6.00801Z" fill="#E8CEBF" stroke="#69725D" stroke-width="1.5" stroke-linecap="round" stroke-linejoin="round"/>
<path d="M16.7744 23.418L1.36426 38.8281" stroke="#69725D" stroke-width="1.5" stroke-linecap="round" stroke-linejoin="round"/>
</svg>
