<svg width="314" height="229" viewBox="0 0 314 229" fill="none" xmlns="http://www.w3.org/2000/svg">
<path fill-rule="evenodd" clip-rule="evenodd" d="M313.332 50.2189L285.171 65.6072L282.583 31.578L313.332 50.2189Z" fill="#F4C8C3"/>
<path fill-rule="evenodd" clip-rule="evenodd" d="M144 23.271L146.163 9L159.046 17.3429L144 23.271Z" fill="#A6CB76"/>
<path fill-rule="evenodd" clip-rule="evenodd" d="M187 43.0178L218 29L194.782 60L187 43.0178Z" fill="#BE6E53"/>
<path fill-rule="evenodd" clip-rule="evenodd" d="M264.65 193.089L292.421 212.744L253.935 208.391L264.65 193.089Z" fill="#BE6E53"/>
<path fill-rule="evenodd" clip-rule="evenodd" d="M292.77 100L275 116.318H294.91L292.77 100Z" fill="#A6CB76"/>
<path fill-rule="evenodd" clip-rule="evenodd" d="M131.633 212.552L128.664 194.929L150.54 199.356L131.633 212.552Z" fill="#D1E4B8"/>
<path fill-rule="evenodd" clip-rule="evenodd" d="M34.3342 15.0271L47.1237 2.54433L55.9524 23.0438L34.3342 15.0271Z" fill="#D1E4B8"/>
<path fill-rule="evenodd" clip-rule="evenodd" d="M231.405 72.022L218 71.964L223.923 59L231.405 72.022Z" fill="#E3D1CE"/>
<path fill-rule="evenodd" clip-rule="evenodd" d="M112.405 66.022L99 65.964L104.923 53L112.405 66.022Z" fill="white"/>
<path fill-rule="evenodd" clip-rule="evenodd" d="M13.405 31.022L0 30.964L5.923 18L13.405 31.022Z" fill="#F4C8C3"/>
<path fill-rule="evenodd" clip-rule="evenodd" d="M177 139.259L197.302 118.088L208.931 147.026L177 139.259Z" fill="white"/>
</svg>
