<svg width="64" height="64" viewBox="0 0 64 64" xmlns="http://www.w3.org/2000/svg" xmlns:xlink="http://www.w3.org/1999/xlink">
    <defs>
        <path id="a" d="M0 64h64V0H0z"/>
    </defs>
    <g fill="none" fill-rule="evenodd">
        <path fill="#0078D7" d="M0 64h64V0H0z"/>
        <g>
            <mask id="b" fill="#fff">
                <use xlink:href="#a"/>
            </mask>
            <use fill="#0077D7" xlink:href="#a"/>
            <path d="M12.575 45.802c-2.591 0-3.507 1.674-3.507 5.023 0 2.749.821 4.866 3.444 4.866 2.306 0 3.538-2.054 3.538-5.15 0-2.75-1.043-4.74-3.475-4.74zm-7.836-9.953h4.55v8.436c.663-1.042 2.022-2.117 4.676-2.117 4.454 0 6.666 3.697 6.666 8.278 0 4.676-2.401 8.846-7.108 8.846-2.433 0-3.507-.726-4.297-1.927 0 .538-.095 1.138-.19 1.548H4.708c.031-1.77.031-3.57.031-5.339V35.849zM21.976 58.913h4.707V35.85h-4.707zM38.896 48.93c-.031-1.896-.79-3.507-3.001-3.507-2.149 0-3.033 1.485-3.223 3.507h6.224zm-6.319 2.78c0 2.053 1.043 4.044 3.286 4.044 1.896 0 2.433-.758 2.875-1.738h4.518c-.569 1.99-2.37 5.276-7.488 5.276-5.402 0-7.74-4.012-7.74-8.309 0-5.15 2.622-8.815 7.898-8.815 5.593 0 7.52 4.076 7.52 8.152 0 .568 0 .916-.063 1.39H32.577zM59.26 54.174c0 1.548 0 3.286.032 4.74H54.87c-.063-.443-.095-1.328-.126-1.896-.98 1.643-2.402 2.274-4.519 2.274-3.317 0-5.434-2.022-5.434-6.066V42.547h4.518v9.763c0 1.801.57 3.286 2.528 3.286 2.053 0 2.907-1.106 2.907-4.329v-8.72h4.518v11.627z" fill="#FFF" mask="url(#b)"/>
            <g mask="url(#b)" fill="#FFF">
                <path d="M52.041 11.074c1.843 0 3.337 1.418 3.337 3.166 0 .537-.141 1.042-.39 1.486h4.134c.111-.479.17-.976.17-1.486 0-2.93-1.93-5.432-4.65-6.424V4.708H51.05v6.508c.313-.092.646-.142.99-.142M53.209 17.206c-.364.129-.757.2-1.168.2-1.842 0-3.336-1.417-3.336-3.166 0-.488.116-.95.324-1.362h-4.096c-.093.44-.143.896-.143 1.362 0 3.8 3.247 6.88 7.251 6.88.398 0 .788-.031 1.168-.09v-3.824z"/>
            </g>
            <path d="M38.319 36.234c0-.479 0-.893-.01-1.298h1.298c.019.11.037.58.037.838.212-.543.718-.94 1.528-.948v1.26c-.957-.027-1.528.23-1.528 1.538v2.08H38.32v-3.47zM45.764 36.142c0-.405 0-.847-.009-1.206h1.28c.027.129.045.46.055.608.156-.295.543-.718 1.38-.718.958 0 1.574.653 1.574 1.85v3.028h-1.316v-2.881c0-.543-.175-.93-.764-.93-.561 0-.874.313-.874 1.16v2.65h-1.326v-3.561zM54.692 38.167c-.156.791-.718 1.647-2.135 1.647-1.482 0-2.246-1.022-2.246-2.457 0-1.408.856-2.531 2.31-2.531 1.602 0 2.053 1.16 2.071 1.693h-1.28c-.082-.386-.303-.653-.818-.653-.608 0-.948.524-.948 1.445 0 1.021.368 1.481.938 1.481.46 0 .7-.266.82-.625h1.288zM57.967 36.795c-.01-.552-.23-1.021-.874-1.021-.626 0-.884.432-.94 1.021h1.814zm-1.84.81c0 .599.303 1.178.957 1.178.552 0 .708-.22.837-.506h1.316c-.166.58-.69 1.537-2.181 1.537-1.574 0-2.255-1.169-2.255-2.42 0-1.5.764-2.568 2.3-2.568 1.63 0 2.191 1.187 2.191 2.374 0 .166 0 .267-.018.405h-3.148zM43.945 37.66c0 .626-.101 1.215-.939 1.215-.479 0-.69-.294-.69-.635 0-.46.294-.708 1.095-.708h.534v.129zm1.289.81v-1.997c0-1.141-.7-1.638-1.97-1.647-1.308 0-1.864.55-2.01 1.278l1.218.25c.055-.35.184-.58.737-.58.616 0 .736.331.736.672v.285h-.681c-1.4 0-2.264.506-2.264 1.592 0 .737.478 1.491 1.629 1.491.847 0 1.169-.313 1.344-.58 0 .12.027.378.064.47h1.26c-.027-.11-.063-.773-.063-1.233zM35.82 39.704V35.93h-.699v-.994h.7v-.414c0-.985.487-1.629 1.518-1.629.211 0 .488.018.607.055v1.04a2.264 2.264 0 0 0-.276-.018c-.386 0-.534.138-.534.654v.312h.828v.994h-.828v3.774H35.82z" fill="#FFF" mask="url(#b)"/>
        </g>
    </g>
</svg>
