<svg width="1440" height="467" viewBox="0 0 1440 467" fill="none" xmlns="http://www.w3.org/2000/svg">
<g opacity="0.25">
<path fill-rule="evenodd" clip-rule="evenodd" d="M51.668 52.2363L79.8291 67.0518L82.4173 34.2893L51.668 52.2363Z" fill="#F4C8C3"/>
<path fill-rule="evenodd" clip-rule="evenodd" d="M221 26.2915L218.837 12.5518L205.954 20.5841L221 26.2915Z" fill="#A6CB76"/>
<path fill-rule="evenodd" clip-rule="evenodd" d="M178 45.3031L147 31.8071L170.218 61.6532L178 45.3031Z" fill="#BE6E53"/>
<path fill-rule="evenodd" clip-rule="evenodd" d="M100.35 189.788L72.5795 208.711L111.065 204.521L100.35 189.788Z" fill="#BE6E53"/>
<path fill-rule="evenodd" clip-rule="evenodd" d="M72.23 100.164L90 115.875H70.09L72.23 100.164Z" fill="#A6CB76"/>
<path fill-rule="evenodd" clip-rule="evenodd" d="M233.367 208.527L236.336 191.56L214.46 195.821L233.367 208.527Z" fill="#D1E4B8"/>
<path fill-rule="evenodd" clip-rule="evenodd" d="M330.666 18.3544L317.876 6.33633L309.048 26.0727L330.666 18.3544Z" fill="#D1E4B8"/>
<path fill-rule="evenodd" clip-rule="evenodd" d="M133.595 73.2277L147 73.1718L141.077 60.6904L133.595 73.2277Z" fill="#E3D1CE"/>
<path fill-rule="evenodd" clip-rule="evenodd" d="M252.595 67.4511L266 67.3952L260.077 54.9138L252.595 67.4511Z" fill="white"/>
<path fill-rule="evenodd" clip-rule="evenodd" d="M351.595 33.754L365 33.6982L359.077 21.2168L351.595 33.754Z" fill="#F4C8C3"/>
<path fill-rule="evenodd" clip-rule="evenodd" d="M188 137.962L167.698 117.579L156.069 145.44L188 137.962Z" fill="white"/>
</g>
<g opacity="0.25">
<path fill-rule="evenodd" clip-rule="evenodd" d="M331.893 198.766L302.422 210.994L327.631 233.142L331.893 198.766Z" fill="#F4C8C3"/>
<path fill-rule="evenodd" clip-rule="evenodd" d="M248.792 343.162L261.366 349.987L262.732 335.269L248.792 343.162Z" fill="#A6CB76"/>
<path fill-rule="evenodd" clip-rule="evenodd" d="M259.731 298.84L289.872 283.647L251.15 282.865L259.731 298.84Z" fill="#BE6E53"/>
<path fill-rule="evenodd" clip-rule="evenodd" d="M189.366 150.937L190.994 118.219L170.712 149.985L189.366 150.937Z" fill="#BE6E53"/>
<path fill-rule="evenodd" clip-rule="evenodd" d="M280.014 184.83L256.212 188.626L268.479 173.528L280.014 184.83Z" fill="#A6CB76"/>
<path fill-rule="evenodd" clip-rule="evenodd" d="M92.0831 240.264L104.135 252.97L114.126 233.754L92.0831 240.264Z" fill="#D1E4B8"/>
<path fill-rule="evenodd" clip-rule="evenodd" d="M187.72 431.216L205.432 428.922L194.724 410.067L187.72 431.216Z" fill="#D1E4B8"/>
<path fill-rule="evenodd" clip-rule="evenodd" d="M264.243 247.961L256.03 258.161L269.89 261.36L264.243 247.961Z" fill="#E3D1CE"/>
<path fill-rule="evenodd" clip-rule="evenodd" d="M195.652 341.763L187.439 351.963L201.3 355.162L195.652 341.763Z" fill="white"/>
<path fill-rule="evenodd" clip-rule="evenodd" d="M162.227 437.6L154.013 447.8L167.874 450.998L162.227 437.6Z" fill="#F4C8C3"/>
<path fill-rule="evenodd" clip-rule="evenodd" d="M177.764 249.336L206.948 246.498L191.319 220.514L177.764 249.336Z" fill="white"/>
</g>
<g opacity="0.25">
<path fill-rule="evenodd" clip-rule="evenodd" d="M1446.5 48.3852L1418.34 63.2007L1415.75 30.4383L1446.5 48.3852Z" fill="#F4C8C3"/>
<path fill-rule="evenodd" clip-rule="evenodd" d="M1277.17 22.4404L1279.33 8.70068L1292.22 16.733L1277.17 22.4404Z" fill="#A6CB76"/>
<path fill-rule="evenodd" clip-rule="evenodd" d="M1320.17 41.452L1351.17 27.9561L1327.95 57.8021L1320.17 41.452Z" fill="#BE6E53"/>
<path fill-rule="evenodd" clip-rule="evenodd" d="M1397.82 185.937L1425.59 204.86L1387.11 200.669L1397.82 185.937Z" fill="#BE6E53"/>
<path fill-rule="evenodd" clip-rule="evenodd" d="M1425.94 96.3132L1408.17 112.024H1428.08L1425.94 96.3132Z" fill="#A6CB76"/>
<path fill-rule="evenodd" clip-rule="evenodd" d="M1264.8 204.675L1261.83 187.708L1283.71 191.97L1264.8 204.675Z" fill="#D1E4B8"/>
<path fill-rule="evenodd" clip-rule="evenodd" d="M1167.5 14.5033L1180.29 2.48526L1189.12 22.2217L1167.5 14.5033Z" fill="#D1E4B8"/>
<path fill-rule="evenodd" clip-rule="evenodd" d="M1364.57 69.3766L1351.17 69.3208L1357.09 56.8394L1364.57 69.3766Z" fill="#E3D1CE"/>
<path fill-rule="evenodd" clip-rule="evenodd" d="M1245.57 63.6L1232.17 63.5442L1238.09 51.0627L1245.57 63.6Z" fill="white"/>
<path fill-rule="evenodd" clip-rule="evenodd" d="M1146.57 29.903L1133.17 29.8471L1139.09 17.3657L1146.57 29.903Z" fill="#F4C8C3"/>
<path fill-rule="evenodd" clip-rule="evenodd" d="M1310.17 134.111L1330.47 113.727L1342.1 141.589L1310.17 134.111Z" fill="white"/>
</g>
<g opacity="0.25">
<path fill-rule="evenodd" clip-rule="evenodd" d="M1187.73 70.8583L1185.6 101.687L1217.57 90.1771L1187.73 70.8583Z" fill="#F4C8C3"/>
<path fill-rule="evenodd" clip-rule="evenodd" d="M1283.36 207.88L1295.4 200.215L1282.41 192.337L1283.36 207.88Z" fill="#A6CB76"/>
<path fill-rule="evenodd" clip-rule="evenodd" d="M1247.37 178.307L1247.05 145.553L1228.69 178.381L1247.37 178.307Z" fill="#BE6E53"/>
<path fill-rule="evenodd" clip-rule="evenodd" d="M1078.56 171.204L1049.05 154.897L1069.18 186.756L1078.56 171.204Z" fill="#BE6E53"/>
<path fill-rule="evenodd" clip-rule="evenodd" d="M1151.2 108.966L1143.87 131.094L1135.5 113.701L1151.2 108.966Z" fill="#A6CB76"/>
<path fill-rule="evenodd" clip-rule="evenodd" d="M1116.81 295.283L1134.05 290.745L1120.83 273.425L1116.81 295.283Z" fill="#D1E4B8"/>
<path fill-rule="evenodd" clip-rule="evenodd" d="M1336.93 300.348L1342.88 284.123L1320.57 284.706L1336.93 300.348Z" fill="#D1E4B8"/>
<path fill-rule="evenodd" clip-rule="evenodd" d="M1202.38 151.252L1208.07 162.939L1217.34 152.519L1202.38 151.252Z" fill="#E3D1CE"/>
<path fill-rule="evenodd" clip-rule="evenodd" d="M1257.85 252.782L1263.53 264.469L1272.81 254.049L1257.85 252.782Z" fill="white"/>
<path fill-rule="evenodd" clip-rule="evenodd" d="M1331.22 325.104L1336.9 336.791L1346.18 326.371L1331.22 325.104Z" fill="#F4C8C3"/>
<path fill-rule="evenodd" clip-rule="evenodd" d="M1164.24 225.991L1174.92 199.687L1143.77 201.238L1164.24 225.991Z" fill="white"/>
</g>
<g opacity="0.25">
<path fill-rule="evenodd" clip-rule="evenodd" d="M404.668 99.4123L432.829 114.228L435.417 81.4653L404.668 99.4123Z" fill="#F4C8C3"/>
<path fill-rule="evenodd" clip-rule="evenodd" d="M574 73.4675L571.837 59.7278L558.954 67.7601L574 73.4675Z" fill="#A6CB76"/>
<path fill-rule="evenodd" clip-rule="evenodd" d="M531 92.4791L500 78.9832L523.218 108.829L531 92.4791Z" fill="#BE6E53"/>
<path fill-rule="evenodd" clip-rule="evenodd" d="M453.35 236.964L425.579 255.887L464.065 251.697L453.35 236.964Z" fill="#BE6E53"/>
<path fill-rule="evenodd" clip-rule="evenodd" d="M425.23 147.34L443 163.051H423.09L425.23 147.34Z" fill="#A6CB76"/>
<path fill-rule="evenodd" clip-rule="evenodd" d="M586.367 255.702L589.336 238.735L567.46 242.997L586.367 255.702Z" fill="#D1E4B8"/>
<path fill-rule="evenodd" clip-rule="evenodd" d="M683.666 65.5304L670.876 53.5124L662.048 73.2488L683.666 65.5304Z" fill="#D1E4B8"/>
<path fill-rule="evenodd" clip-rule="evenodd" d="M486.595 120.404L500 120.348L494.077 107.866L486.595 120.404Z" fill="#E3D1CE"/>
<path fill-rule="evenodd" clip-rule="evenodd" d="M605.595 114.627L619 114.571L613.077 102.09L605.595 114.627Z" fill="white"/>
<path fill-rule="evenodd" clip-rule="evenodd" d="M704.595 80.9301L718 80.8742L712.077 68.3928L704.595 80.9301Z" fill="#F4C8C3"/>
<path fill-rule="evenodd" clip-rule="evenodd" d="M541 185.138L520.698 164.755L509.069 192.616L541 185.138Z" fill="white"/>
</g>
<g opacity="0.25">
<path fill-rule="evenodd" clip-rule="evenodd" d="M876.814 324.764L891.727 297.406L857.659 295.465L876.814 324.764Z" fill="#F4C8C3"/>
<path fill-rule="evenodd" clip-rule="evenodd" d="M847.023 162.195L832.79 164.509L841.349 176.775L847.023 162.195Z" fill="#A6CB76"/>
<path fill-rule="evenodd" clip-rule="evenodd" d="M867.49 203.269L853.996 233.337L884.601 210.485L867.49 203.269Z" fill="#BE6E53"/>
<path fill-rule="evenodd" clip-rule="evenodd" d="M1018.85 275.588L1038.96 302.003L1033.97 265.026L1018.85 275.588Z" fill="#BE6E53"/>
<path fill-rule="evenodd" clip-rule="evenodd" d="M926.243 304.165L942.26 286.794L942.595 305.96L926.243 304.165Z" fill="#A6CB76"/>
<path fill-rule="evenodd" clip-rule="evenodd" d="M1036.07 147.226L1018.4 144.652L1023.19 165.64L1036.07 147.226Z" fill="#D1E4B8"/>
<path fill-rule="evenodd" clip-rule="evenodd" d="M836.936 56.7597L824.67 69.2735L845.315 77.4404L836.936 56.7597Z" fill="#D1E4B8"/>
<path fill-rule="evenodd" clip-rule="evenodd" d="M897.237 245.545L896.953 232.642L884.091 238.554L897.237 245.545Z" fill="#E3D1CE"/>
<path fill-rule="evenodd" clip-rule="evenodd" d="M889.237 131.088L888.953 118.185L876.091 124.096L889.237 131.088Z" fill="white"/>
<path fill-rule="evenodd" clip-rule="evenodd" d="M852.577 36.3535L852.293 23.4503L839.431 29.3619L852.577 36.3535Z" fill="#F4C8C3"/>
<path fill-rule="evenodd" clip-rule="evenodd" d="M963.55 192.084L942.723 211.97L971.853 222.697L963.55 192.084Z" fill="white"/>
</g>
</svg>
